<?xml version="1.0" encoding="UTF-8" standalone="no"?><svg xmlns="http://www.w3.org/2000/svg" xmlns:xlink="http://www.w3.org/1999/xlink" contentStyleType="text/css" height="586px" preserveAspectRatio="none" style="width:836px;height:586px;background:#FFFFFF;" version="1.1" viewBox="0 0 836 586" width="836px" zoomAndPan="magnify"><defs/><g><rect fill="#FFFFFF" height="29.1328" style="stroke:#181818;stroke-width:1.0;" width="10" x="86" y="112.4297"/><rect fill="#FFFFFF" height="304.4609" style="stroke:#181818;stroke-width:1.0;" width="10" x="232" y="141.5625"/><rect fill="#FFFFFF" height="159.7969" style="stroke:#181818;stroke-width:1.0;" width="10" x="448" y="170.6953"/><rect fill="#FFFFFF" height="29.1328" style="stroke:#181818;stroke-width:1.0;" width="10" x="602" y="199.8281"/><rect fill="#FFFFFF" height="80.2656" style="stroke:#181818;stroke-width:1.0;" width="10" x="712.5" y="416.8906"/><line style="stroke:#181818;stroke-width:0.5;stroke-dasharray:5.0,5.0;" x1="22" x2="22" y1="81.2969" y2="506.1563"/><line style="stroke:#181818;stroke-width:0.5;stroke-dasharray:5.0,5.0;" x1="91" x2="91" y1="81.2969" y2="506.1563"/><line style="stroke:#181818;stroke-width:0.5;stroke-dasharray:5.0,5.0;" x1="237" x2="237" y1="81.2969" y2="506.1563"/><line style="stroke:#181818;stroke-width:0.5;stroke-dasharray:5.0,5.0;" x1="453" x2="453" y1="81.2969" y2="506.1563"/><line style="stroke:#181818;stroke-width:0.5;stroke-dasharray:5.0,5.0;" x1="607" x2="607" y1="81.2969" y2="506.1563"/><line style="stroke:#181818;stroke-width:0.5;stroke-dasharray:5.0,5.0;" x1="717" x2="717" y1="81.2969" y2="506.1563"/><text fill="#000000" font-family="sans-serif" font-size="14" lengthAdjust="spacing" textLength="28" x="5" y="77.9951">用户</text><ellipse cx="22" cy="13.5" fill="#E2E2F0" rx="8" ry="8" style="stroke:#181818;stroke-width:0.5;"/><path d="M22,21.5 L22,48.5 M9,29.5 L35,29.5 M22,48.5 L9,63.5 M22,48.5 L35,63.5 " fill="none" style="stroke:#181818;stroke-width:0.5;"/><text fill="#000000" font-family="sans-serif" font-size="14" lengthAdjust="spacing" textLength="28" x="5" y="518.1514">用户</text><ellipse cx="22" cy="529.9531" fill="#E2E2F0" rx="8" ry="8" style="stroke:#181818;stroke-width:0.5;"/><path d="M22,537.9531 L22,564.9531 M9,545.9531 L35,545.9531 M22,564.9531 L9,579.9531 M22,564.9531 L35,579.9531 " fill="none" style="stroke:#181818;stroke-width:0.5;"/><rect fill="#E2E2F0" height="30.2969" rx="2.5" ry="2.5" style="stroke:#181818;stroke-width:0.5;" width="84" x="49" y="50"/><text fill="#000000" font-family="sans-serif" font-size="14" lengthAdjust="spacing" textLength="70" x="56" y="69.9951">订单微服务</text><rect fill="#E2E2F0" height="30.2969" rx="2.5" ry="2.5" style="stroke:#181818;stroke-width:0.5;" width="84" x="49" y="505.1563"/><text fill="#000000" font-family="sans-serif" font-size="14" lengthAdjust="spacing" textLength="70" x="56" y="525.1514">订单微服务</text><rect fill="#E2E2F0" height="30.2969" rx="2.5" ry="2.5" style="stroke:#181818;stroke-width:0.5;" width="70" x="202" y="50"/><text fill="#000000" font-family="sans-serif" font-size="14" lengthAdjust="spacing" textLength="56" x="209" y="69.9951">调度中心</text><rect fill="#E2E2F0" height="30.2969" rx="2.5" ry="2.5" style="stroke:#181818;stroke-width:0.5;" width="70" x="202" y="505.1563"/><text fill="#000000" font-family="sans-serif" font-size="14" lengthAdjust="spacing" textLength="56" x="209" y="525.1514">调度中心</text><rect fill="#E2E2F0" height="30.2969" rx="2.5" ry="2.5" style="stroke:#181818;stroke-width:0.5;" width="98" x="404" y="50"/><text fill="#000000" font-family="sans-serif" font-size="14" lengthAdjust="spacing" textLength="84" x="411" y="69.9951">快递员微服务</text><rect fill="#E2E2F0" height="30.2969" rx="2.5" ry="2.5" style="stroke:#181818;stroke-width:0.5;" width="98" x="404" y="505.1563"/><text fill="#000000" font-family="sans-serif" font-size="14" lengthAdjust="spacing" textLength="84" x="411" y="525.1514">快递员微服务</text><rect fill="#E2E2F0" height="30.2969" rx="2.5" ry="2.5" style="stroke:#181818;stroke-width:0.5;" width="112" x="551" y="50"/><text fill="#000000" font-family="sans-serif" font-size="14" lengthAdjust="spacing" textLength="98" x="558" y="69.9951">作业范围微服务</text><rect fill="#E2E2F0" height="30.2969" rx="2.5" ry="2.5" style="stroke:#181818;stroke-width:0.5;" width="112" x="551" y="505.1563"/><text fill="#000000" font-family="sans-serif" font-size="14" lengthAdjust="spacing" textLength="98" x="558" y="525.1514">作业范围微服务</text><rect fill="#E2E2F0" height="30.2969" rx="2.5" ry="2.5" style="stroke:#181818;stroke-width:0.5;" width="89" x="673" y="50"/><text fill="#000000" font-family="sans-serif" font-size="14" lengthAdjust="spacing" textLength="75" x="680" y="69.9951">work微服务</text><rect fill="#E2E2F0" height="30.2969" rx="2.5" ry="2.5" style="stroke:#181818;stroke-width:0.5;" width="89" x="673" y="505.1563"/><text fill="#000000" font-family="sans-serif" font-size="14" lengthAdjust="spacing" textLength="75" x="680" y="525.1514">work微服务</text><rect fill="#FFFFFF" height="29.1328" style="stroke:#181818;stroke-width:1.0;" width="10" x="86" y="112.4297"/><rect fill="#FFFFFF" height="304.4609" style="stroke:#181818;stroke-width:1.0;" width="10" x="232" y="141.5625"/><rect fill="#FFFFFF" height="159.7969" style="stroke:#181818;stroke-width:1.0;" width="10" x="448" y="170.6953"/><rect fill="#FFFFFF" height="29.1328" style="stroke:#181818;stroke-width:1.0;" width="10" x="602" y="199.8281"/><rect fill="#FFFFFF" height="80.2656" style="stroke:#181818;stroke-width:1.0;" width="10" x="712.5" y="416.8906"/><polygon fill="#181818" points="74,108.4297,84,112.4297,74,116.4297,78,112.4297" style="stroke:#181818;stroke-width:1.0;"/><line style="stroke:#181818;stroke-width:1.0;" x1="22" x2="80" y1="112.4297" y2="112.4297"/><text fill="#000000" font-family="sans-serif" font-size="13" font-weight="bold" lengthAdjust="spacing" textLength="9" x="29" y="107.3638">1</text><text fill="#000000" font-family="sans-serif" font-size="13" lengthAdjust="spacing" textLength="26" x="42" y="107.3638">下单</text><polygon fill="#181818" points="220,137.5625,230,141.5625,220,145.5625,224,141.5625" style="stroke:#181818;stroke-width:1.0;"/><line style="stroke:#181818;stroke-width:1.0;stroke-dasharray:2.0,2.0;" x1="91" x2="226" y1="141.5625" y2="141.5625"/><text fill="#000000" font-family="sans-serif" font-size="13" font-weight="bold" lengthAdjust="spacing" textLength="9" x="98" y="136.4966">2</text><text fill="#000000" font-family="sans-serif" font-size="13" lengthAdjust="spacing" textLength="104" x="111" y="136.4966">发消息（新订单）</text><polygon fill="#181818" points="436,166.6953,446,170.6953,436,174.6953,440,170.6953" style="stroke:#181818;stroke-width:1.0;"/><line style="stroke:#181818;stroke-width:1.0;" x1="242" x2="442" y1="170.6953" y2="170.6953"/><text fill="#000000" font-family="sans-serif" font-size="13" font-weight="bold" lengthAdjust="spacing" textLength="9" x="249" y="165.6294">3</text><text fill="#000000" font-family="sans-serif" font-size="13" lengthAdjust="spacing" textLength="117" x="262" y="165.6294">订单位置查询快递员</text><polygon fill="#181818" points="590,195.8281,600,199.8281,590,203.8281,594,199.8281" style="stroke:#181818;stroke-width:1.0;"/><line style="stroke:#181818;stroke-width:1.0;" x1="458" x2="596" y1="199.8281" y2="199.8281"/><text fill="#000000" font-family="sans-serif" font-size="13" font-weight="bold" lengthAdjust="spacing" textLength="9" x="465" y="194.7622">4</text><text fill="#000000" font-family="sans-serif" font-size="13" lengthAdjust="spacing" textLength="78" x="478" y="194.7622">查询服务范围</text><polygon fill="#181818" points="469,224.9609,459,228.9609,469,232.9609,465,228.9609" style="stroke:#181818;stroke-width:1.0;"/><line style="stroke:#181818;stroke-width:1.0;" x1="463" x2="606" y1="228.9609" y2="228.9609"/><text fill="#000000" font-family="sans-serif" font-size="13" font-weight="bold" lengthAdjust="spacing" textLength="9" x="475" y="223.895">5</text><text fill="#000000" font-family="sans-serif" font-size="13" lengthAdjust="spacing" textLength="65" x="488" y="223.895">返回快递员</text><line style="stroke:#181818;stroke-width:1.0;" x1="458" x2="500" y1="273.2266" y2="273.2266"/><line style="stroke:#181818;stroke-width:1.0;" x1="500" x2="500" y1="273.2266" y2="286.2266"/><line style="stroke:#181818;stroke-width:1.0;" x1="459" x2="500" y1="286.2266" y2="286.2266"/><polygon fill="#181818" points="469,282.2266,459,286.2266,469,290.2266,465,286.2266" style="stroke:#181818;stroke-width:1.0;"/><text fill="#000000" font-family="sans-serif" font-size="13" font-weight="bold" lengthAdjust="spacing" textLength="9" x="465" y="260.5942">6</text><text fill="#000000" font-family="sans-serif" font-size="13" lengthAdjust="spacing" textLength="117" x="478" y="253.0278">优先使用有排班的，</text><text fill="#000000" font-family="sans-serif" font-size="13" lengthAdjust="spacing" textLength="117" x="478" y="268.1606">无排班任意一快递员</text><polygon fill="#181818" points="253,326.4922,243,330.4922,253,334.4922,249,330.4922" style="stroke:#181818;stroke-width:1.0;"/><line style="stroke:#181818;stroke-width:1.0;" x1="247" x2="452" y1="330.4922" y2="330.4922"/><text fill="#000000" font-family="sans-serif" font-size="13" font-weight="bold" lengthAdjust="spacing" textLength="9" x="259" y="317.8599">7</text><text fill="#000000" font-family="sans-serif" font-size="13" lengthAdjust="spacing" textLength="169" x="272" y="310.2935">返回快递员列表（可能为空，</text><text fill="#000000" font-family="sans-serif" font-size="13" lengthAdjust="spacing" textLength="104" x="272" y="325.4263">后台指派快递员）</text><line style="stroke:#181818;stroke-width:1.0;" x1="242" x2="284" y1="374.7578" y2="374.7578"/><line style="stroke:#181818;stroke-width:1.0;" x1="284" x2="284" y1="374.7578" y2="387.7578"/><line style="stroke:#181818;stroke-width:1.0;" x1="243" x2="284" y1="387.7578" y2="387.7578"/><polygon fill="#181818" points="253,383.7578,243,387.7578,253,391.7578,249,387.7578" style="stroke:#181818;stroke-width:1.0;"/><text fill="#000000" font-family="sans-serif" font-size="13" font-weight="bold" lengthAdjust="spacing" textLength="9" x="249" y="362.1255">8</text><text fill="#000000" font-family="sans-serif" font-size="13" lengthAdjust="spacing" textLength="169" x="262" y="354.5591">如果有快递员，需要根据当日</text><text fill="#000000" font-family="sans-serif" font-size="13" lengthAdjust="spacing" textLength="117" x="262" y="369.6919">的任务数选取快递员</text><polygon fill="#181818" points="700.5,412.8906,710.5,416.8906,700.5,420.8906,704.5,416.8906" style="stroke:#181818;stroke-width:1.0;"/><line style="stroke:#181818;stroke-width:1.0;stroke-dasharray:2.0,2.0;" x1="242" x2="706.5" y1="416.8906" y2="416.8906"/><text fill="#000000" font-family="sans-serif" font-size="13" font-weight="bold" lengthAdjust="spacing" textLength="9" x="249" y="411.8247">9</text><text fill="#000000" font-family="sans-serif" font-size="13" lengthAdjust="spacing" textLength="281" x="262" y="411.8247">上面取件时间与当前时间差小于2小时，实时消息</text><polygon fill="#181818" points="700.5,442.0234,710.5,446.0234,700.5,450.0234,704.5,446.0234" style="stroke:#181818;stroke-width:1.0;"/><line style="stroke:#181818;stroke-width:1.0;stroke-dasharray:2.0,2.0;" x1="237" x2="706.5" y1="446.0234" y2="446.0234"/><text fill="#000000" font-family="sans-serif" font-size="13" font-weight="bold" lengthAdjust="spacing" textLength="18" x="244" y="440.9575">10</text><text fill="#000000" font-family="sans-serif" font-size="13" lengthAdjust="spacing" textLength="281" x="266" y="440.9575">上面取件时间与当前时间差大于2小时，延时消息</text><line style="stroke:#181818;stroke-width:1.0;" x1="722.5" x2="764.5" y1="475.1563" y2="475.1563"/><line style="stroke:#181818;stroke-width:1.0;" x1="764.5" x2="764.5" y1="475.1563" y2="488.1563"/><line style="stroke:#181818;stroke-width:1.0;" x1="723.5" x2="764.5" y1="488.1563" y2="488.1563"/><polygon fill="#181818" points="733.5,484.1563,723.5,488.1563,733.5,492.1563,729.5,488.1563" style="stroke:#181818;stroke-width:1.0;"/><text fill="#000000" font-family="sans-serif" font-size="13" font-weight="bold" lengthAdjust="spacing" textLength="18" x="729.5" y="470.0903">11</text><text fill="#000000" font-family="sans-serif" font-size="13" lengthAdjust="spacing" textLength="78" x="751.5" y="470.0903">新增取件任务</text></g></svg>