<?xml version="1.0" encoding="UTF-8" standalone="no"?><svg xmlns="http://www.w3.org/2000/svg" xmlns:xlink="http://www.w3.org/1999/xlink" contentStyleType="text/css" height="599px" preserveAspectRatio="none" style="width:717px;height:599px;background:#FFFFFF;" version="1.1" viewBox="0 0 717 599" width="717px" zoomAndPan="magnify"><defs/><g><rect fill="#FFFFFF" height="71.2656" style="stroke:#181818;stroke-width:1.0;" width="10" x="113" y="112.4297"/><rect fill="#FFFFFF" height="51.1328" style="stroke:#181818;stroke-width:1.0;" width="10" x="113" y="459.0234"/><rect fill="#FFFFFF" height="275.3281" style="stroke:#181818;stroke-width:1.0;" width="10" x="280" y="183.6953"/><rect fill="#FFFFFF" height="159.7969" style="stroke:#181818;stroke-width:1.0;" width="10" x="496" y="212.8281"/><rect fill="#FFFFFF" height="29.1328" style="stroke:#181818;stroke-width:1.0;" width="10" x="650" y="241.9609"/><line style="stroke:#181818;stroke-width:0.5;stroke-dasharray:5.0,5.0;" x1="29" x2="29" y1="81.2969" y2="519.1563"/><line style="stroke:#181818;stroke-width:0.5;stroke-dasharray:5.0,5.0;" x1="117.5" x2="117.5" y1="81.2969" y2="519.1563"/><line style="stroke:#181818;stroke-width:0.5;stroke-dasharray:5.0,5.0;" x1="285" x2="285" y1="81.2969" y2="519.1563"/><line style="stroke:#181818;stroke-width:0.5;stroke-dasharray:5.0,5.0;" x1="501" x2="501" y1="81.2969" y2="519.1563"/><line style="stroke:#181818;stroke-width:0.5;stroke-dasharray:5.0,5.0;" x1="655" x2="655" y1="81.2969" y2="519.1563"/><text fill="#000000" font-family="sans-serif" font-size="14" lengthAdjust="spacing" textLength="42" x="5" y="77.9951">快递员</text><ellipse cx="29" cy="13.5" fill="#E2E2F0" rx="8" ry="8" style="stroke:#181818;stroke-width:0.5;"/><path d="M29,21.5 L29,48.5 M16,29.5 L42,29.5 M29,48.5 L16,63.5 M29,48.5 L42,63.5 " fill="none" style="stroke:#181818;stroke-width:0.5;"/><text fill="#000000" font-family="sans-serif" font-size="14" lengthAdjust="spacing" textLength="42" x="5" y="531.1514">快递员</text><ellipse cx="29" cy="542.9531" fill="#E2E2F0" rx="8" ry="8" style="stroke:#181818;stroke-width:0.5;"/><path d="M29,550.9531 L29,577.9531 M16,558.9531 L42,558.9531 M29,577.9531 L16,592.9531 M29,577.9531 L42,592.9531 " fill="none" style="stroke:#181818;stroke-width:0.5;"/><rect fill="#E2E2F0" height="30.2969" rx="2.5" ry="2.5" style="stroke:#181818;stroke-width:0.5;" width="89" x="73.5" y="50"/><text fill="#000000" font-family="sans-serif" font-size="14" lengthAdjust="spacing" textLength="75" x="80.5" y="69.9951">work微服务</text><rect fill="#E2E2F0" height="30.2969" rx="2.5" ry="2.5" style="stroke:#181818;stroke-width:0.5;" width="89" x="73.5" y="518.1563"/><text fill="#000000" font-family="sans-serif" font-size="14" lengthAdjust="spacing" textLength="75" x="80.5" y="538.1514">work微服务</text><rect fill="#E2E2F0" height="30.2969" rx="2.5" ry="2.5" style="stroke:#181818;stroke-width:0.5;" width="70" x="250" y="50"/><text fill="#000000" font-family="sans-serif" font-size="14" lengthAdjust="spacing" textLength="56" x="257" y="69.9951">调度中心</text><rect fill="#E2E2F0" height="30.2969" rx="2.5" ry="2.5" style="stroke:#181818;stroke-width:0.5;" width="70" x="250" y="518.1563"/><text fill="#000000" font-family="sans-serif" font-size="14" lengthAdjust="spacing" textLength="56" x="257" y="538.1514">调度中心</text><rect fill="#E2E2F0" height="30.2969" rx="2.5" ry="2.5" style="stroke:#181818;stroke-width:0.5;" width="98" x="452" y="50"/><text fill="#000000" font-family="sans-serif" font-size="14" lengthAdjust="spacing" textLength="84" x="459" y="69.9951">快递员微服务</text><rect fill="#E2E2F0" height="30.2969" rx="2.5" ry="2.5" style="stroke:#181818;stroke-width:0.5;" width="98" x="452" y="518.1563"/><text fill="#000000" font-family="sans-serif" font-size="14" lengthAdjust="spacing" textLength="84" x="459" y="538.1514">快递员微服务</text><rect fill="#E2E2F0" height="30.2969" rx="2.5" ry="2.5" style="stroke:#181818;stroke-width:0.5;" width="112" x="599" y="50"/><text fill="#000000" font-family="sans-serif" font-size="14" lengthAdjust="spacing" textLength="98" x="606" y="69.9951">作业范围微服务</text><rect fill="#E2E2F0" height="30.2969" rx="2.5" ry="2.5" style="stroke:#181818;stroke-width:0.5;" width="112" x="599" y="518.1563"/><text fill="#000000" font-family="sans-serif" font-size="14" lengthAdjust="spacing" textLength="98" x="606" y="538.1514">作业范围微服务</text><rect fill="#FFFFFF" height="71.2656" style="stroke:#181818;stroke-width:1.0;" width="10" x="113" y="112.4297"/><rect fill="#FFFFFF" height="51.1328" style="stroke:#181818;stroke-width:1.0;" width="10" x="113" y="459.0234"/><rect fill="#FFFFFF" height="275.3281" style="stroke:#181818;stroke-width:1.0;" width="10" x="280" y="183.6953"/><rect fill="#FFFFFF" height="159.7969" style="stroke:#181818;stroke-width:1.0;" width="10" x="496" y="212.8281"/><rect fill="#FFFFFF" height="29.1328" style="stroke:#181818;stroke-width:1.0;" width="10" x="650" y="241.9609"/><polygon fill="#181818" points="101,108.4297,111,112.4297,101,116.4297,105,112.4297" style="stroke:#181818;stroke-width:1.0;"/><line style="stroke:#181818;stroke-width:1.0;" x1="29" x2="107" y1="112.4297" y2="112.4297"/><text fill="#000000" font-family="sans-serif" font-size="13" font-weight="bold" lengthAdjust="spacing" textLength="9" x="36" y="107.3638">1</text><text fill="#000000" font-family="sans-serif" font-size="13" lengthAdjust="spacing" textLength="52" x="49" y="107.3638">取消任务</text><line style="stroke:#181818;stroke-width:1.0;" x1="123" x2="165" y1="141.5625" y2="141.5625"/><line style="stroke:#181818;stroke-width:1.0;" x1="165" x2="165" y1="141.5625" y2="154.5625"/><line style="stroke:#181818;stroke-width:1.0;" x1="124" x2="165" y1="154.5625" y2="154.5625"/><polygon fill="#181818" points="134,150.5625,124,154.5625,134,158.5625,130,154.5625" style="stroke:#181818;stroke-width:1.0;"/><text fill="#000000" font-family="sans-serif" font-size="13" font-weight="bold" lengthAdjust="spacing" textLength="9" x="130" y="136.4966">2</text><text fill="#000000" font-family="sans-serif" font-size="13" lengthAdjust="spacing" textLength="130" x="143" y="136.4966">取消原因为：个人原因</text><polygon fill="#181818" points="268,179.6953,278,183.6953,268,187.6953,272,183.6953" style="stroke:#181818;stroke-width:1.0;"/><line style="stroke:#181818;stroke-width:1.0;stroke-dasharray:2.0,2.0;" x1="118" x2="274" y1="183.6953" y2="183.6953"/><text fill="#000000" font-family="sans-serif" font-size="13" font-weight="bold" lengthAdjust="spacing" textLength="9" x="125" y="178.6294">3</text><text fill="#000000" font-family="sans-serif" font-size="13" lengthAdjust="spacing" textLength="104" x="138" y="178.6294">发送生成取件消息</text><polygon fill="#181818" points="484,208.8281,494,212.8281,484,216.8281,488,212.8281" style="stroke:#181818;stroke-width:1.0;"/><line style="stroke:#181818;stroke-width:1.0;" x1="290" x2="490" y1="212.8281" y2="212.8281"/><text fill="#000000" font-family="sans-serif" font-size="13" font-weight="bold" lengthAdjust="spacing" textLength="9" x="297" y="207.7622">4</text><text fill="#000000" font-family="sans-serif" font-size="13" lengthAdjust="spacing" textLength="117" x="310" y="207.7622">订单位置查询快递员</text><polygon fill="#181818" points="638,237.9609,648,241.9609,638,245.9609,642,241.9609" style="stroke:#181818;stroke-width:1.0;"/><line style="stroke:#181818;stroke-width:1.0;" x1="506" x2="644" y1="241.9609" y2="241.9609"/><text fill="#000000" font-family="sans-serif" font-size="13" font-weight="bold" lengthAdjust="spacing" textLength="9" x="513" y="236.895">5</text><text fill="#000000" font-family="sans-serif" font-size="13" lengthAdjust="spacing" textLength="78" x="526" y="236.895">查询服务范围</text><polygon fill="#181818" points="517,267.0938,507,271.0938,517,275.0938,513,271.0938" style="stroke:#181818;stroke-width:1.0;"/><line style="stroke:#181818;stroke-width:1.0;" x1="511" x2="654" y1="271.0938" y2="271.0938"/><text fill="#000000" font-family="sans-serif" font-size="13" font-weight="bold" lengthAdjust="spacing" textLength="9" x="523" y="266.0278">6</text><text fill="#000000" font-family="sans-serif" font-size="13" lengthAdjust="spacing" textLength="65" x="536" y="266.0278">返回快递员</text><line style="stroke:#181818;stroke-width:1.0;" x1="506" x2="548" y1="315.3594" y2="315.3594"/><line style="stroke:#181818;stroke-width:1.0;" x1="548" x2="548" y1="315.3594" y2="328.3594"/><line style="stroke:#181818;stroke-width:1.0;" x1="507" x2="548" y1="328.3594" y2="328.3594"/><polygon fill="#181818" points="517,324.3594,507,328.3594,517,332.3594,513,328.3594" style="stroke:#181818;stroke-width:1.0;"/><text fill="#000000" font-family="sans-serif" font-size="13" font-weight="bold" lengthAdjust="spacing" textLength="9" x="513" y="302.7271">7</text><text fill="#000000" font-family="sans-serif" font-size="13" lengthAdjust="spacing" textLength="117" x="526" y="295.1606">优先使用有排班的，</text><text fill="#000000" font-family="sans-serif" font-size="13" lengthAdjust="spacing" textLength="117" x="526" y="310.2935">无排班任意一快递员</text><polygon fill="#181818" points="301,368.625,291,372.625,301,376.625,297,372.625" style="stroke:#181818;stroke-width:1.0;"/><line style="stroke:#181818;stroke-width:1.0;" x1="295" x2="500" y1="372.625" y2="372.625"/><text fill="#000000" font-family="sans-serif" font-size="13" font-weight="bold" lengthAdjust="spacing" textLength="9" x="307" y="359.9927">8</text><text fill="#000000" font-family="sans-serif" font-size="13" lengthAdjust="spacing" textLength="169" x="320" y="352.4263">返回快递员列表（可能为空，</text><text fill="#000000" font-family="sans-serif" font-size="13" lengthAdjust="spacing" textLength="104" x="320" y="367.5591">后台指派快递员）</text><line style="stroke:#181818;stroke-width:1.0;" x1="290" x2="332" y1="416.8906" y2="416.8906"/><line style="stroke:#181818;stroke-width:1.0;" x1="332" x2="332" y1="416.8906" y2="429.8906"/><line style="stroke:#181818;stroke-width:1.0;" x1="291" x2="332" y1="429.8906" y2="429.8906"/><polygon fill="#181818" points="301,425.8906,291,429.8906,301,433.8906,297,429.8906" style="stroke:#181818;stroke-width:1.0;"/><text fill="#000000" font-family="sans-serif" font-size="13" font-weight="bold" lengthAdjust="spacing" textLength="9" x="297" y="404.2583">9</text><text fill="#000000" font-family="sans-serif" font-size="13" lengthAdjust="spacing" textLength="169" x="310" y="396.6919">如果有快递员，需要根据当日</text><text fill="#000000" font-family="sans-serif" font-size="13" lengthAdjust="spacing" textLength="117" x="310" y="411.8247">的任务数选取快递员</text><polygon fill="#181818" points="134,455.0234,124,459.0234,134,463.0234,130,459.0234" style="stroke:#181818;stroke-width:1.0;"/><line style="stroke:#181818;stroke-width:1.0;stroke-dasharray:2.0,2.0;" x1="128" x2="284" y1="459.0234" y2="459.0234"/><text fill="#000000" font-family="sans-serif" font-size="13" font-weight="bold" lengthAdjust="spacing" textLength="18" x="140" y="453.9575">10</text><text fill="#000000" font-family="sans-serif" font-size="13" lengthAdjust="spacing" textLength="78" x="162" y="453.9575">发送实时消息</text><line style="stroke:#181818;stroke-width:1.0;" x1="123" x2="165" y1="488.1563" y2="488.1563"/><line style="stroke:#181818;stroke-width:1.0;" x1="165" x2="165" y1="488.1563" y2="501.1563"/><line style="stroke:#181818;stroke-width:1.0;" x1="124" x2="165" y1="501.1563" y2="501.1563"/><polygon fill="#181818" points="134,497.1563,124,501.1563,134,505.1563,130,501.1563" style="stroke:#181818;stroke-width:1.0;"/><text fill="#000000" font-family="sans-serif" font-size="13" font-weight="bold" lengthAdjust="spacing" textLength="18" x="130" y="483.0903">11</text><text fill="#000000" font-family="sans-serif" font-size="13" lengthAdjust="spacing" textLength="78" x="152" y="483.0903">新增取件任务</text></g></svg>