<?xml version="1.0" encoding="UTF-8" standalone="no"?><svg xmlns="http://www.w3.org/2000/svg" xmlns:xlink="http://www.w3.org/1999/xlink" contentStyleType="text/css" height="671px" preserveAspectRatio="none" style="width:774px;height:671px;background:#FFFFFF;" version="1.1" viewBox="0 0 774 671" width="774px" zoomAndPan="magnify"><defs/><g><rect fill="#FFFFFF" height="29.1328" style="stroke:#181818;stroke-width:1.0;" width="10" x="86" y="112.4297"/><rect fill="#FFFFFF" height="113.3984" style="stroke:#181818;stroke-width:1.0;" width="10" x="182.5" y="141.5625"/><rect fill="#FFFFFF" height="51.1328" style="stroke:#181818;stroke-width:1.0;" width="10" x="182.5" y="530.2891"/><rect fill="#FFFFFF" height="275.3281" style="stroke:#181818;stroke-width:1.0;" width="10" x="328.5" y="254.9609"/><rect fill="#FFFFFF" height="159.7969" style="stroke:#181818;stroke-width:1.0;" width="10" x="553.5" y="284.0938"/><rect fill="#FFFFFF" height="29.1328" style="stroke:#181818;stroke-width:1.0;" width="10" x="707.5" y="313.2266"/><line style="stroke:#181818;stroke-width:0.5;stroke-dasharray:5.0,5.0;" x1="22" x2="22" y1="81.2969" y2="590.4219"/><line style="stroke:#181818;stroke-width:0.5;stroke-dasharray:5.0,5.0;" x1="91" x2="91" y1="81.2969" y2="590.4219"/><line style="stroke:#181818;stroke-width:0.5;stroke-dasharray:5.0,5.0;" x1="187" x2="187" y1="81.2969" y2="590.4219"/><line style="stroke:#181818;stroke-width:0.5;stroke-dasharray:5.0,5.0;" x1="333.5" x2="333.5" y1="81.2969" y2="590.4219"/><line style="stroke:#181818;stroke-width:0.5;stroke-dasharray:5.0,5.0;" x1="558.5" x2="558.5" y1="81.2969" y2="590.4219"/><line style="stroke:#181818;stroke-width:0.5;stroke-dasharray:5.0,5.0;" x1="712.5" x2="712.5" y1="81.2969" y2="590.4219"/><text fill="#000000" font-family="sans-serif" font-size="14" lengthAdjust="spacing" textLength="28" x="5" y="77.9951">用户</text><ellipse cx="22" cy="13.5" fill="#E2E2F0" rx="8" ry="8" style="stroke:#181818;stroke-width:0.5;"/><path d="M22,21.5 L22,48.5 M9,29.5 L35,29.5 M22,48.5 L9,63.5 M22,48.5 L35,63.5 " fill="none" style="stroke:#181818;stroke-width:0.5;"/><text fill="#000000" font-family="sans-serif" font-size="14" lengthAdjust="spacing" textLength="28" x="5" y="602.417">用户</text><ellipse cx="22" cy="614.2188" fill="#E2E2F0" rx="8" ry="8" style="stroke:#181818;stroke-width:0.5;"/><path d="M22,622.2188 L22,649.2188 M9,630.2188 L35,630.2188 M22,649.2188 L9,664.2188 M22,649.2188 L35,664.2188 " fill="none" style="stroke:#181818;stroke-width:0.5;"/><rect fill="#E2E2F0" height="30.2969" rx="2.5" ry="2.5" style="stroke:#181818;stroke-width:0.5;" width="84" x="49" y="50"/><text fill="#000000" font-family="sans-serif" font-size="14" lengthAdjust="spacing" textLength="70" x="56" y="69.9951">订单微服务</text><rect fill="#E2E2F0" height="30.2969" rx="2.5" ry="2.5" style="stroke:#181818;stroke-width:0.5;" width="84" x="49" y="589.4219"/><text fill="#000000" font-family="sans-serif" font-size="14" lengthAdjust="spacing" textLength="70" x="56" y="609.417">订单微服务</text><rect fill="#E2E2F0" height="30.2969" rx="2.5" ry="2.5" style="stroke:#181818;stroke-width:0.5;" width="89" x="143" y="50"/><text fill="#000000" font-family="sans-serif" font-size="14" lengthAdjust="spacing" textLength="75" x="150" y="69.9951">work微服务</text><rect fill="#E2E2F0" height="30.2969" rx="2.5" ry="2.5" style="stroke:#181818;stroke-width:0.5;" width="89" x="143" y="589.4219"/><text fill="#000000" font-family="sans-serif" font-size="14" lengthAdjust="spacing" textLength="75" x="150" y="609.417">work微服务</text><rect fill="#E2E2F0" height="30.2969" rx="2.5" ry="2.5" style="stroke:#181818;stroke-width:0.5;" width="70" x="298.5" y="50"/><text fill="#000000" font-family="sans-serif" font-size="14" lengthAdjust="spacing" textLength="56" x="305.5" y="69.9951">调度中心</text><rect fill="#E2E2F0" height="30.2969" rx="2.5" ry="2.5" style="stroke:#181818;stroke-width:0.5;" width="70" x="298.5" y="589.4219"/><text fill="#000000" font-family="sans-serif" font-size="14" lengthAdjust="spacing" textLength="56" x="305.5" y="609.417">调度中心</text><rect fill="#E2E2F0" height="30.2969" rx="2.5" ry="2.5" style="stroke:#181818;stroke-width:0.5;" width="98" x="509.5" y="50"/><text fill="#000000" font-family="sans-serif" font-size="14" lengthAdjust="spacing" textLength="84" x="516.5" y="69.9951">快递员微服务</text><rect fill="#E2E2F0" height="30.2969" rx="2.5" ry="2.5" style="stroke:#181818;stroke-width:0.5;" width="98" x="509.5" y="589.4219"/><text fill="#000000" font-family="sans-serif" font-size="14" lengthAdjust="spacing" textLength="84" x="516.5" y="609.417">快递员微服务</text><rect fill="#E2E2F0" height="30.2969" rx="2.5" ry="2.5" style="stroke:#181818;stroke-width:0.5;" width="112" x="656.5" y="50"/><text fill="#000000" font-family="sans-serif" font-size="14" lengthAdjust="spacing" textLength="98" x="663.5" y="69.9951">作业范围微服务</text><rect fill="#E2E2F0" height="30.2969" rx="2.5" ry="2.5" style="stroke:#181818;stroke-width:0.5;" width="112" x="656.5" y="589.4219"/><text fill="#000000" font-family="sans-serif" font-size="14" lengthAdjust="spacing" textLength="98" x="663.5" y="609.417">作业范围微服务</text><rect fill="#FFFFFF" height="29.1328" style="stroke:#181818;stroke-width:1.0;" width="10" x="86" y="112.4297"/><rect fill="#FFFFFF" height="113.3984" style="stroke:#181818;stroke-width:1.0;" width="10" x="182.5" y="141.5625"/><rect fill="#FFFFFF" height="51.1328" style="stroke:#181818;stroke-width:1.0;" width="10" x="182.5" y="530.2891"/><rect fill="#FFFFFF" height="275.3281" style="stroke:#181818;stroke-width:1.0;" width="10" x="328.5" y="254.9609"/><rect fill="#FFFFFF" height="159.7969" style="stroke:#181818;stroke-width:1.0;" width="10" x="553.5" y="284.0938"/><rect fill="#FFFFFF" height="29.1328" style="stroke:#181818;stroke-width:1.0;" width="10" x="707.5" y="313.2266"/><polygon fill="#181818" points="74,108.4297,84,112.4297,74,116.4297,78,112.4297" style="stroke:#181818;stroke-width:1.0;"/><line style="stroke:#181818;stroke-width:1.0;" x1="22" x2="80" y1="112.4297" y2="112.4297"/><text fill="#000000" font-family="sans-serif" font-size="13" font-weight="bold" lengthAdjust="spacing" textLength="9" x="29" y="107.3638">1</text><text fill="#000000" font-family="sans-serif" font-size="13" lengthAdjust="spacing" textLength="26" x="42" y="107.3638">下单</text><polygon fill="#181818" points="170.5,137.5625,180.5,141.5625,170.5,145.5625,174.5,141.5625" style="stroke:#181818;stroke-width:1.0;"/><line style="stroke:#181818;stroke-width:1.0;" x1="91" x2="176.5" y1="141.5625" y2="141.5625"/><text fill="#000000" font-family="sans-serif" font-size="13" font-weight="bold" lengthAdjust="spacing" textLength="9" x="98" y="136.4966">2</text><text fill="#000000" font-family="sans-serif" font-size="13" lengthAdjust="spacing" textLength="39" x="111" y="136.4966">发消息</text><line style="stroke:#181818;stroke-width:1.0;" x1="192.5" x2="234.5" y1="170.6953" y2="170.6953"/><line style="stroke:#181818;stroke-width:1.0;" x1="234.5" x2="234.5" y1="170.6953" y2="183.6953"/><line style="stroke:#181818;stroke-width:1.0;" x1="193.5" x2="234.5" y1="183.6953" y2="183.6953"/><polygon fill="#181818" points="203.5,179.6953,193.5,183.6953,203.5,187.6953,199.5,183.6953" style="stroke:#181818;stroke-width:1.0;"/><text fill="#000000" font-family="sans-serif" font-size="13" font-weight="bold" lengthAdjust="spacing" textLength="9" x="199.5" y="165.6294">3</text><text fill="#000000" font-family="sans-serif" font-size="13" lengthAdjust="spacing" textLength="65" x="212.5" y="165.6294">订单转运单</text><line style="stroke:#181818;stroke-width:1.0;" x1="192.5" x2="234.5" y1="212.8281" y2="212.8281"/><line style="stroke:#181818;stroke-width:1.0;" x1="234.5" x2="234.5" y1="212.8281" y2="225.8281"/><line style="stroke:#181818;stroke-width:1.0;" x1="193.5" x2="234.5" y1="225.8281" y2="225.8281"/><polygon fill="#181818" points="203.5,221.8281,193.5,225.8281,203.5,229.8281,199.5,225.8281" style="stroke:#181818;stroke-width:1.0;"/><text fill="#000000" font-family="sans-serif" font-size="13" font-weight="bold" lengthAdjust="spacing" textLength="9" x="199.5" y="207.7622">4</text><text fill="#000000" font-family="sans-serif" font-size="13" lengthAdjust="spacing" textLength="91" x="212.5" y="207.7622">收发件人同网点</text><polygon fill="#181818" points="316.5,250.9609,326.5,254.9609,316.5,258.9609,320.5,254.9609" style="stroke:#181818;stroke-width:1.0;"/><line style="stroke:#181818;stroke-width:1.0;stroke-dasharray:2.0,2.0;" x1="187.5" x2="322.5" y1="254.9609" y2="254.9609"/><text fill="#000000" font-family="sans-serif" font-size="13" font-weight="bold" lengthAdjust="spacing" textLength="9" x="194.5" y="249.895">5</text><text fill="#000000" font-family="sans-serif" font-size="13" lengthAdjust="spacing" textLength="104" x="207.5" y="249.895">发送生成派件消息</text><polygon fill="#181818" points="541.5,280.0938,551.5,284.0938,541.5,288.0938,545.5,284.0938" style="stroke:#181818;stroke-width:1.0;"/><line style="stroke:#181818;stroke-width:1.0;" x1="338.5" x2="547.5" y1="284.0938" y2="284.0938"/><text fill="#000000" font-family="sans-serif" font-size="13" font-weight="bold" lengthAdjust="spacing" textLength="9" x="345.5" y="279.0278">6</text><text fill="#000000" font-family="sans-serif" font-size="13" lengthAdjust="spacing" textLength="117" x="358.5" y="279.0278">订单位置查询快递员</text><polygon fill="#181818" points="695.5,309.2266,705.5,313.2266,695.5,317.2266,699.5,313.2266" style="stroke:#181818;stroke-width:1.0;"/><line style="stroke:#181818;stroke-width:1.0;" x1="563.5" x2="701.5" y1="313.2266" y2="313.2266"/><text fill="#000000" font-family="sans-serif" font-size="13" font-weight="bold" lengthAdjust="spacing" textLength="9" x="570.5" y="308.1606">7</text><text fill="#000000" font-family="sans-serif" font-size="13" lengthAdjust="spacing" textLength="78" x="583.5" y="308.1606">查询服务范围</text><polygon fill="#181818" points="574.5,338.3594,564.5,342.3594,574.5,346.3594,570.5,342.3594" style="stroke:#181818;stroke-width:1.0;"/><line style="stroke:#181818;stroke-width:1.0;" x1="568.5" x2="711.5" y1="342.3594" y2="342.3594"/><text fill="#000000" font-family="sans-serif" font-size="13" font-weight="bold" lengthAdjust="spacing" textLength="9" x="580.5" y="337.2935">8</text><text fill="#000000" font-family="sans-serif" font-size="13" lengthAdjust="spacing" textLength="65" x="593.5" y="337.2935">返回快递员</text><line style="stroke:#181818;stroke-width:1.0;" x1="563.5" x2="605.5" y1="386.625" y2="386.625"/><line style="stroke:#181818;stroke-width:1.0;" x1="605.5" x2="605.5" y1="386.625" y2="399.625"/><line style="stroke:#181818;stroke-width:1.0;" x1="564.5" x2="605.5" y1="399.625" y2="399.625"/><polygon fill="#181818" points="574.5,395.625,564.5,399.625,574.5,403.625,570.5,399.625" style="stroke:#181818;stroke-width:1.0;"/><text fill="#000000" font-family="sans-serif" font-size="13" font-weight="bold" lengthAdjust="spacing" textLength="9" x="570.5" y="373.9927">9</text><text fill="#000000" font-family="sans-serif" font-size="13" lengthAdjust="spacing" textLength="117" x="583.5" y="366.4263">优先使用有排班的，</text><text fill="#000000" font-family="sans-serif" font-size="13" lengthAdjust="spacing" textLength="117" x="583.5" y="381.5591">无排班任意一快递员</text><polygon fill="#181818" points="349.5,439.8906,339.5,443.8906,349.5,447.8906,345.5,443.8906" style="stroke:#181818;stroke-width:1.0;"/><line style="stroke:#181818;stroke-width:1.0;" x1="343.5" x2="557.5" y1="443.8906" y2="443.8906"/><text fill="#000000" font-family="sans-serif" font-size="13" font-weight="bold" lengthAdjust="spacing" textLength="18" x="355.5" y="431.2583">10</text><text fill="#000000" font-family="sans-serif" font-size="13" lengthAdjust="spacing" textLength="169" x="377.5" y="423.6919">返回快递员列表（可能为空，</text><text fill="#000000" font-family="sans-serif" font-size="13" lengthAdjust="spacing" textLength="104" x="377.5" y="438.8247">后台指派快递员）</text><line style="stroke:#181818;stroke-width:1.0;" x1="338.5" x2="380.5" y1="488.1563" y2="488.1563"/><line style="stroke:#181818;stroke-width:1.0;" x1="380.5" x2="380.5" y1="488.1563" y2="501.1563"/><line style="stroke:#181818;stroke-width:1.0;" x1="339.5" x2="380.5" y1="501.1563" y2="501.1563"/><polygon fill="#181818" points="349.5,497.1563,339.5,501.1563,349.5,505.1563,345.5,501.1563" style="stroke:#181818;stroke-width:1.0;"/><text fill="#000000" font-family="sans-serif" font-size="13" font-weight="bold" lengthAdjust="spacing" textLength="18" x="345.5" y="475.5239">11</text><text fill="#000000" font-family="sans-serif" font-size="13" lengthAdjust="spacing" textLength="169" x="367.5" y="467.9575">如果有快递员，需要根据当日</text><text fill="#000000" font-family="sans-serif" font-size="13" lengthAdjust="spacing" textLength="117" x="367.5" y="483.0903">的任务数选取快递员</text><polygon fill="#181818" points="203.5,526.2891,193.5,530.2891,203.5,534.2891,199.5,530.2891" style="stroke:#181818;stroke-width:1.0;"/><line style="stroke:#181818;stroke-width:1.0;stroke-dasharray:2.0,2.0;" x1="197.5" x2="332.5" y1="530.2891" y2="530.2891"/><text fill="#000000" font-family="sans-serif" font-size="13" font-weight="bold" lengthAdjust="spacing" textLength="18" x="209.5" y="525.2231">12</text><text fill="#000000" font-family="sans-serif" font-size="13" lengthAdjust="spacing" textLength="78" x="231.5" y="525.2231">发送实时消息</text><line style="stroke:#181818;stroke-width:1.0;" x1="192.5" x2="234.5" y1="559.4219" y2="559.4219"/><line style="stroke:#181818;stroke-width:1.0;" x1="234.5" x2="234.5" y1="559.4219" y2="572.4219"/><line style="stroke:#181818;stroke-width:1.0;" x1="193.5" x2="234.5" y1="572.4219" y2="572.4219"/><polygon fill="#181818" points="203.5,568.4219,193.5,572.4219,203.5,576.4219,199.5,572.4219" style="stroke:#181818;stroke-width:1.0;"/><text fill="#000000" font-family="sans-serif" font-size="13" font-weight="bold" lengthAdjust="spacing" textLength="18" x="199.5" y="554.356">13</text><text fill="#000000" font-family="sans-serif" font-size="13" lengthAdjust="spacing" textLength="78" x="221.5" y="554.356">新增派件任务</text></g></svg>