<?xml version="1.0" encoding="UTF-8" standalone="no"?><svg xmlns="http://www.w3.org/2000/svg" xmlns:xlink="http://www.w3.org/1999/xlink" contentStyleType="text/css" height="755px" preserveAspectRatio="none" style="width:742px;height:755px;background:#FFFFFF;" version="1.1" viewBox="0 0 742 755" width="742px" zoomAndPan="magnify"><defs/><g><rect fill="#FFFFFF" height="574.2578" style="stroke:#181818;stroke-width:1.0;" width="10" x="24" y="91.2969"/><rect fill="#FFFFFF" height="553.125" style="stroke:#181818;stroke-width:1.0;" width="10" x="188" y="112.4297"/><rect fill="#FFFFFF" height="523.9922" style="stroke:#181818;stroke-width:1.0;" width="10" x="435" y="141.5625"/><rect fill="#FFFFFF" height="80.2656" style="stroke:#181818;stroke-width:1.0;" width="10" x="625.5" y="585.2891"/><line style="stroke:#181818;stroke-width:0.5;stroke-dasharray:5.0,5.0;" x1="29" x2="29" y1="81.2969" y2="674.5547"/><line style="stroke:#181818;stroke-width:0.5;stroke-dasharray:5.0,5.0;" x1="193" x2="193" y1="81.2969" y2="674.5547"/><line style="stroke:#181818;stroke-width:0.5;stroke-dasharray:5.0,5.0;" x1="440" x2="440" y1="81.2969" y2="674.5547"/><line style="stroke:#181818;stroke-width:0.5;stroke-dasharray:5.0,5.0;" x1="630" x2="630" y1="81.2969" y2="674.5547"/><text fill="#000000" font-family="sans-serif" font-size="14" lengthAdjust="spacing" textLength="42" x="5" y="77.9951">管理员</text><ellipse cx="29" cy="13.5" fill="#E2E2F0" rx="8" ry="8" style="stroke:#181818;stroke-width:0.5;"/><path d="M29,21.5 L29,48.5 M16,29.5 L42,29.5 M29,48.5 L16,63.5 M29,48.5 L42,63.5 " fill="none" style="stroke:#181818;stroke-width:0.5;"/><text fill="#000000" font-family="sans-serif" font-size="14" lengthAdjust="spacing" textLength="42" x="5" y="686.5498">管理员</text><ellipse cx="29" cy="698.3516" fill="#E2E2F0" rx="8" ry="8" style="stroke:#181818;stroke-width:0.5;"/><path d="M29,706.3516 L29,733.3516 M16,714.3516 L42,714.3516 M29,733.3516 L16,748.3516 M29,733.3516 L42,748.3516 " fill="none" style="stroke:#181818;stroke-width:0.5;"/><rect fill="#E2E2F0" height="30.2969" rx="2.5" ry="2.5" style="stroke:#181818;stroke-width:0.5;" width="260" x="63" y="50"/><text fill="#000000" font-family="sans-serif" font-size="14" lengthAdjust="spacing" textLength="246" x="70" y="69.9951">ManagerTokenGatewayFilterFactory</text><rect fill="#E2E2F0" height="30.2969" rx="2.5" ry="2.5" style="stroke:#181818;stroke-width:0.5;" width="260" x="63" y="673.5547"/><text fill="#000000" font-family="sans-serif" font-size="14" lengthAdjust="spacing" textLength="246" x="70" y="693.5498">ManagerTokenGatewayFilterFactory</text><rect fill="#E2E2F0" height="30.2969" rx="2.5" ry="2.5" style="stroke:#181818;stroke-width:0.5;" width="150" x="365" y="50"/><text fill="#000000" font-family="sans-serif" font-size="14" lengthAdjust="spacing" textLength="136" x="372" y="69.9951">TokenGatewayFilter</text><rect fill="#E2E2F0" height="30.2969" rx="2.5" ry="2.5" style="stroke:#181818;stroke-width:0.5;" width="150" x="365" y="673.5547"/><text fill="#000000" font-family="sans-serif" font-size="14" lengthAdjust="spacing" textLength="136" x="372" y="693.5498">TokenGatewayFilter</text><rect fill="#E2E2F0" height="30.2969" rx="2.5" ry="2.5" style="stroke:#181818;stroke-width:0.5;" width="211" x="525" y="50"/><text fill="#000000" font-family="sans-serif" font-size="14" lengthAdjust="spacing" textLength="197" x="532" y="69.9951">sl-express-ms-web-manager</text><rect fill="#E2E2F0" height="30.2969" rx="2.5" ry="2.5" style="stroke:#181818;stroke-width:0.5;" width="211" x="525" y="673.5547"/><text fill="#000000" font-family="sans-serif" font-size="14" lengthAdjust="spacing" textLength="197" x="532" y="693.5498">sl-express-ms-web-manager</text><rect fill="#FFFFFF" height="574.2578" style="stroke:#181818;stroke-width:1.0;" width="10" x="24" y="91.2969"/><rect fill="#FFFFFF" height="553.125" style="stroke:#181818;stroke-width:1.0;" width="10" x="188" y="112.4297"/><rect fill="#FFFFFF" height="523.9922" style="stroke:#181818;stroke-width:1.0;" width="10" x="435" y="141.5625"/><rect fill="#FFFFFF" height="80.2656" style="stroke:#181818;stroke-width:1.0;" width="10" x="625.5" y="585.2891"/><polygon fill="#181818" points="176,108.4297,186,112.4297,176,116.4297,180,112.4297" style="stroke:#181818;stroke-width:1.0;"/><line style="stroke:#181818;stroke-width:1.0;" x1="34" x2="182" y1="112.4297" y2="112.4297"/><text fill="#000000" font-family="sans-serif" font-size="13" font-weight="bold" lengthAdjust="spacing" textLength="9" x="41" y="107.3638">1</text><text fill="#000000" font-family="sans-serif" font-size="13" lengthAdjust="spacing" textLength="80" x="54" y="107.3638">/manager/**</text><polygon fill="#181818" points="423,137.5625,433,141.5625,423,145.5625,427,141.5625" style="stroke:#181818;stroke-width:1.0;"/><line style="stroke:#181818;stroke-width:1.0;" x1="198" x2="429" y1="141.5625" y2="141.5625"/><text fill="#000000" font-family="sans-serif" font-size="13" font-weight="bold" lengthAdjust="spacing" textLength="9" x="205" y="136.4966">2</text><text fill="#000000" font-family="sans-serif" font-size="13" lengthAdjust="spacing" textLength="176" x="218" y="136.4966">构造TokenGatewayFilter对象</text><line style="stroke:#181818;stroke-width:1.0;" x1="445" x2="487" y1="170.6953" y2="170.6953"/><line style="stroke:#181818;stroke-width:1.0;" x1="487" x2="487" y1="170.6953" y2="183.6953"/><line style="stroke:#181818;stroke-width:1.0;" x1="446" x2="487" y1="183.6953" y2="183.6953"/><polygon fill="#181818" points="456,179.6953,446,183.6953,456,187.6953,452,183.6953" style="stroke:#181818;stroke-width:1.0;"/><text fill="#000000" font-family="sans-serif" font-size="13" font-weight="bold" lengthAdjust="spacing" textLength="9" x="452" y="165.6294">3</text><text fill="#000000" font-family="sans-serif" font-size="13" lengthAdjust="spacing" textLength="90" x="465" y="165.6294">执行filter()方法</text><line style="stroke:#181818;stroke-width:1.0;" x1="445" x2="487" y1="212.8281" y2="212.8281"/><line style="stroke:#181818;stroke-width:1.0;" x1="487" x2="487" y1="212.8281" y2="225.8281"/><line style="stroke:#181818;stroke-width:1.0;" x1="446" x2="487" y1="225.8281" y2="225.8281"/><polygon fill="#181818" points="456,221.8281,446,225.8281,456,229.8281,452,225.8281" style="stroke:#181818;stroke-width:1.0;"/><text fill="#000000" font-family="sans-serif" font-size="13" font-weight="bold" lengthAdjust="spacing" textLength="9" x="452" y="207.7622">4</text><text fill="#000000" font-family="sans-serif" font-size="13" lengthAdjust="spacing" textLength="120" x="465" y="207.7622">校验是否为放行path</text><line style="stroke:#181818;stroke-width:1.0;" x1="35" x2="45" y1="254.9609" y2="250.9609"/><line style="stroke:#181818;stroke-width:1.0;stroke-dasharray:2.0,2.0;" x1="34" x2="434" y1="254.9609" y2="254.9609"/><text fill="#000000" font-family="sans-serif" font-size="13" font-weight="bold" lengthAdjust="spacing" textLength="9" x="51" y="249.895">5</text><text fill="#000000" font-family="sans-serif" font-size="13" lengthAdjust="spacing" textLength="91" x="64" y="249.895">无需校验的放行</text><polygon fill="#181818" points="209,280.0938,199,284.0938,209,288.0938,205,284.0938" style="stroke:#181818;stroke-width:1.0;"/><line style="stroke:#181818;stroke-width:1.0;" x1="203" x2="434" y1="284.0938" y2="284.0938"/><text fill="#000000" font-family="sans-serif" font-size="13" font-weight="bold" lengthAdjust="spacing" textLength="9" x="215" y="279.0278">6</text><text fill="#000000" font-family="sans-serif" font-size="13" lengthAdjust="spacing" textLength="199" x="228" y="279.0278">执行AuthFilter接口的check()方法</text><line style="stroke:#181818;stroke-width:1.0;" x1="198" x2="240" y1="313.2266" y2="313.2266"/><line style="stroke:#181818;stroke-width:1.0;" x1="240" x2="240" y1="313.2266" y2="326.2266"/><line style="stroke:#181818;stroke-width:1.0;" x1="199" x2="240" y1="326.2266" y2="326.2266"/><polygon fill="#181818" points="209,322.2266,199,326.2266,209,330.2266,205,326.2266" style="stroke:#181818;stroke-width:1.0;"/><text fill="#000000" font-family="sans-serif" font-size="13" font-weight="bold" lengthAdjust="spacing" textLength="9" x="205" y="308.1606">7</text><text fill="#000000" font-family="sans-serif" font-size="13" lengthAdjust="spacing" textLength="140" x="218" y="308.1606">通过权限系统校验token</text><polygon fill="#181818" points="423,351.3594,433,355.3594,423,359.3594,427,355.3594" style="stroke:#181818;stroke-width:1.0;"/><line style="stroke:#181818;stroke-width:1.0;" x1="198" x2="429" y1="355.3594" y2="355.3594"/><text fill="#000000" font-family="sans-serif" font-size="13" font-weight="bold" lengthAdjust="spacing" textLength="9" x="205" y="350.2935">8</text><text fill="#000000" font-family="sans-serif" font-size="13" lengthAdjust="spacing" textLength="78" x="218" y="350.2935">返回校验结果</text><line style="stroke:#181818;stroke-width:1.0;" x1="445" x2="487" y1="384.4922" y2="384.4922"/><line style="stroke:#181818;stroke-width:1.0;" x1="487" x2="487" y1="384.4922" y2="397.4922"/><line style="stroke:#181818;stroke-width:1.0;" x1="446" x2="487" y1="397.4922" y2="397.4922"/><polygon fill="#181818" points="456,393.4922,446,397.4922,456,401.4922,452,397.4922" style="stroke:#181818;stroke-width:1.0;"/><text fill="#000000" font-family="sans-serif" font-size="13" font-weight="bold" lengthAdjust="spacing" textLength="9" x="452" y="379.4263">9</text><text fill="#000000" font-family="sans-serif" font-size="13" lengthAdjust="spacing" textLength="104" x="465" y="379.4263">判断结果是否为空</text><line style="stroke:#181818;stroke-width:1.0;" x1="35" x2="45" y1="426.625" y2="422.625"/><line style="stroke:#181818;stroke-width:1.0;stroke-dasharray:2.0,2.0;" x1="34" x2="434" y1="426.625" y2="426.625"/><text fill="#000000" font-family="sans-serif" font-size="13" font-weight="bold" lengthAdjust="spacing" textLength="18" x="51" y="421.5591">10</text><text fill="#000000" font-family="sans-serif" font-size="13" lengthAdjust="spacing" textLength="76" x="73" y="421.5591">为空响应401</text><polygon fill="#181818" points="209,451.7578,199,455.7578,209,459.7578,205,455.7578" style="stroke:#181818;stroke-width:1.0;"/><line style="stroke:#181818;stroke-width:1.0;" x1="203" x2="434" y1="455.7578" y2="455.7578"/><text fill="#000000" font-family="sans-serif" font-size="13" font-weight="bold" lengthAdjust="spacing" textLength="18" x="215" y="450.6919">11</text><text fill="#000000" font-family="sans-serif" font-size="13" lengthAdjust="spacing" textLength="191" x="237" y="450.6919">执行AuthFilter接口的auth()方法</text><line style="stroke:#181818;stroke-width:1.0;" x1="198" x2="240" y1="484.8906" y2="484.8906"/><line style="stroke:#181818;stroke-width:1.0;" x1="240" x2="240" y1="484.8906" y2="497.8906"/><line style="stroke:#181818;stroke-width:1.0;" x1="199" x2="240" y1="497.8906" y2="497.8906"/><polygon fill="#181818" points="209,493.8906,199,497.8906,209,501.8906,205,497.8906" style="stroke:#181818;stroke-width:1.0;"/><text fill="#000000" font-family="sans-serif" font-size="13" font-weight="bold" lengthAdjust="spacing" textLength="18" x="205" y="479.8247">12</text><text fill="#000000" font-family="sans-serif" font-size="13" lengthAdjust="spacing" textLength="104" x="227" y="479.8247">查询角色进行校验</text><polygon fill="#181818" points="423,523.0234,433,527.0234,423,531.0234,427,527.0234" style="stroke:#181818;stroke-width:1.0;"/><line style="stroke:#181818;stroke-width:1.0;" x1="198" x2="429" y1="527.0234" y2="527.0234"/><text fill="#000000" font-family="sans-serif" font-size="13" font-weight="bold" lengthAdjust="spacing" textLength="18" x="205" y="521.9575">13</text><text fill="#000000" font-family="sans-serif" font-size="13" lengthAdjust="spacing" textLength="91" x="227" y="521.9575">返回Boolean值</text><line style="stroke:#181818;stroke-width:1.0;" x1="35" x2="45" y1="556.1563" y2="552.1563"/><line style="stroke:#181818;stroke-width:1.0;stroke-dasharray:2.0,2.0;" x1="34" x2="434" y1="556.1563" y2="556.1563"/><text fill="#000000" font-family="sans-serif" font-size="13" font-weight="bold" lengthAdjust="spacing" textLength="18" x="51" y="551.0903">14</text><text fill="#000000" font-family="sans-serif" font-size="13" lengthAdjust="spacing" textLength="93" x="73" y="551.0903">false：响应400</text><polygon fill="#181818" points="613.5,581.2891,623.5,585.2891,613.5,589.2891,617.5,585.2891" style="stroke:#181818;stroke-width:1.0;"/><line style="stroke:#181818;stroke-width:1.0;" x1="445" x2="619.5" y1="585.2891" y2="585.2891"/><text fill="#000000" font-family="sans-serif" font-size="13" font-weight="bold" lengthAdjust="spacing" textLength="18" x="452" y="580.2231">15</text><text fill="#000000" font-family="sans-serif" font-size="13" lengthAdjust="spacing" textLength="86" x="474" y="580.2231">true: 转发请求</text><line style="stroke:#181818;stroke-width:1.0;" x1="635.5" x2="677.5" y1="614.4219" y2="614.4219"/><line style="stroke:#181818;stroke-width:1.0;" x1="677.5" x2="677.5" y1="614.4219" y2="627.4219"/><line style="stroke:#181818;stroke-width:1.0;" x1="636.5" x2="677.5" y1="627.4219" y2="627.4219"/><polygon fill="#181818" points="646.5,623.4219,636.5,627.4219,646.5,631.4219,642.5,627.4219" style="stroke:#181818;stroke-width:1.0;"/><text fill="#000000" font-family="sans-serif" font-size="13" font-weight="bold" lengthAdjust="spacing" textLength="18" x="642.5" y="609.356">16</text><text fill="#000000" font-family="sans-serif" font-size="13" lengthAdjust="spacing" textLength="52" x="664.5" y="609.356">业务处理</text><polygon fill="#181818" points="45,652.5547,35,656.5547,45,660.5547,41,656.5547" style="stroke:#181818;stroke-width:1.0;"/><line style="stroke:#181818;stroke-width:1.0;" x1="39" x2="624.5" y1="656.5547" y2="656.5547"/><text fill="#000000" font-family="sans-serif" font-size="13" font-weight="bold" lengthAdjust="spacing" textLength="18" x="51" y="651.4888">17</text><text fill="#000000" font-family="sans-serif" font-size="13" lengthAdjust="spacing" textLength="52" x="73" y="651.4888">响应结果</text></g></svg>