<?xml version="1.0" encoding="UTF-8" standalone="no"?><svg xmlns="http://www.w3.org/2000/svg" xmlns:xlink="http://www.w3.org/1999/xlink" contentStyleType="text/css" height="644px" preserveAspectRatio="none" style="width:809px;height:644px;background:#FFFFFF;" version="1.1" viewBox="0 0 809 644" width="809px" zoomAndPan="magnify"><defs/><g><rect fill="#FFFFFF" height="29.1328" style="stroke:#181818;stroke-width:1.0;" width="10" x="106" y="112.4297"/><rect fill="#FFFFFF" height="86.3984" style="stroke:#181818;stroke-width:1.0;" width="10" x="226" y="141.5625"/><rect fill="#FFFFFF" height="51.1328" style="stroke:#181818;stroke-width:1.0;" width="10" x="226" y="503.2891"/><rect fill="#FFFFFF" height="275.3281" style="stroke:#181818;stroke-width:1.0;" width="10" x="372" y="227.9609"/><rect fill="#FFFFFF" height="159.7969" style="stroke:#181818;stroke-width:1.0;" width="10" x="588" y="257.0938"/><rect fill="#FFFFFF" height="29.1328" style="stroke:#181818;stroke-width:1.0;" width="10" x="742" y="286.2266"/><line style="stroke:#181818;stroke-width:0.5;stroke-dasharray:5.0,5.0;" x1="22" x2="22" y1="81.2969" y2="563.4219"/><line style="stroke:#181818;stroke-width:0.5;stroke-dasharray:5.0,5.0;" x1="111" x2="111" y1="81.2969" y2="563.4219"/><line style="stroke:#181818;stroke-width:0.5;stroke-dasharray:5.0,5.0;" x1="230.5" x2="230.5" y1="81.2969" y2="563.4219"/><line style="stroke:#181818;stroke-width:0.5;stroke-dasharray:5.0,5.0;" x1="377" x2="377" y1="81.2969" y2="563.4219"/><line style="stroke:#181818;stroke-width:0.5;stroke-dasharray:5.0,5.0;" x1="593" x2="593" y1="81.2969" y2="563.4219"/><line style="stroke:#181818;stroke-width:0.5;stroke-dasharray:5.0,5.0;" x1="747" x2="747" y1="81.2969" y2="563.4219"/><text fill="#000000" font-family="sans-serif" font-size="14" lengthAdjust="spacing" textLength="28" x="5" y="77.9951">司机</text><ellipse cx="22" cy="13.5" fill="#E2E2F0" rx="8" ry="8" style="stroke:#181818;stroke-width:0.5;"/><path d="M22,21.5 L22,48.5 M9,29.5 L35,29.5 M22,48.5 L9,63.5 M22,48.5 L35,63.5 " fill="none" style="stroke:#181818;stroke-width:0.5;"/><text fill="#000000" font-family="sans-serif" font-size="14" lengthAdjust="spacing" textLength="28" x="5" y="575.417">司机</text><ellipse cx="22" cy="587.2188" fill="#E2E2F0" rx="8" ry="8" style="stroke:#181818;stroke-width:0.5;"/><path d="M22,595.2188 L22,622.2188 M9,603.2188 L35,603.2188 M22,622.2188 L9,637.2188 M22,622.2188 L35,637.2188 " fill="none" style="stroke:#181818;stroke-width:0.5;"/><rect fill="#E2E2F0" height="30.2969" rx="2.5" ry="2.5" style="stroke:#181818;stroke-width:0.5;" width="84" x="69" y="50"/><text fill="#000000" font-family="sans-serif" font-size="14" lengthAdjust="spacing" textLength="70" x="76" y="69.9951">司机微服务</text><rect fill="#E2E2F0" height="30.2969" rx="2.5" ry="2.5" style="stroke:#181818;stroke-width:0.5;" width="84" x="69" y="562.4219"/><text fill="#000000" font-family="sans-serif" font-size="14" lengthAdjust="spacing" textLength="70" x="76" y="582.417">司机微服务</text><rect fill="#E2E2F0" height="30.2969" rx="2.5" ry="2.5" style="stroke:#181818;stroke-width:0.5;" width="89" x="186.5" y="50"/><text fill="#000000" font-family="sans-serif" font-size="14" lengthAdjust="spacing" textLength="75" x="193.5" y="69.9951">work微服务</text><rect fill="#E2E2F0" height="30.2969" rx="2.5" ry="2.5" style="stroke:#181818;stroke-width:0.5;" width="89" x="186.5" y="562.4219"/><text fill="#000000" font-family="sans-serif" font-size="14" lengthAdjust="spacing" textLength="75" x="193.5" y="582.417">work微服务</text><rect fill="#E2E2F0" height="30.2969" rx="2.5" ry="2.5" style="stroke:#181818;stroke-width:0.5;" width="70" x="342" y="50"/><text fill="#000000" font-family="sans-serif" font-size="14" lengthAdjust="spacing" textLength="56" x="349" y="69.9951">调度中心</text><rect fill="#E2E2F0" height="30.2969" rx="2.5" ry="2.5" style="stroke:#181818;stroke-width:0.5;" width="70" x="342" y="562.4219"/><text fill="#000000" font-family="sans-serif" font-size="14" lengthAdjust="spacing" textLength="56" x="349" y="582.417">调度中心</text><rect fill="#E2E2F0" height="30.2969" rx="2.5" ry="2.5" style="stroke:#181818;stroke-width:0.5;" width="98" x="544" y="50"/><text fill="#000000" font-family="sans-serif" font-size="14" lengthAdjust="spacing" textLength="84" x="551" y="69.9951">快递员微服务</text><rect fill="#E2E2F0" height="30.2969" rx="2.5" ry="2.5" style="stroke:#181818;stroke-width:0.5;" width="98" x="544" y="562.4219"/><text fill="#000000" font-family="sans-serif" font-size="14" lengthAdjust="spacing" textLength="84" x="551" y="582.417">快递员微服务</text><rect fill="#E2E2F0" height="30.2969" rx="2.5" ry="2.5" style="stroke:#181818;stroke-width:0.5;" width="112" x="691" y="50"/><text fill="#000000" font-family="sans-serif" font-size="14" lengthAdjust="spacing" textLength="98" x="698" y="69.9951">作业范围微服务</text><rect fill="#E2E2F0" height="30.2969" rx="2.5" ry="2.5" style="stroke:#181818;stroke-width:0.5;" width="112" x="691" y="562.4219"/><text fill="#000000" font-family="sans-serif" font-size="14" lengthAdjust="spacing" textLength="98" x="698" y="582.417">作业范围微服务</text><rect fill="#FFFFFF" height="29.1328" style="stroke:#181818;stroke-width:1.0;" width="10" x="106" y="112.4297"/><rect fill="#FFFFFF" height="86.3984" style="stroke:#181818;stroke-width:1.0;" width="10" x="226" y="141.5625"/><rect fill="#FFFFFF" height="51.1328" style="stroke:#181818;stroke-width:1.0;" width="10" x="226" y="503.2891"/><rect fill="#FFFFFF" height="275.3281" style="stroke:#181818;stroke-width:1.0;" width="10" x="372" y="227.9609"/><rect fill="#FFFFFF" height="159.7969" style="stroke:#181818;stroke-width:1.0;" width="10" x="588" y="257.0938"/><rect fill="#FFFFFF" height="29.1328" style="stroke:#181818;stroke-width:1.0;" width="10" x="742" y="286.2266"/><polygon fill="#181818" points="94,108.4297,104,112.4297,94,116.4297,98,112.4297" style="stroke:#181818;stroke-width:1.0;"/><line style="stroke:#181818;stroke-width:1.0;" x1="22" x2="100" y1="112.4297" y2="112.4297"/><text fill="#000000" font-family="sans-serif" font-size="13" font-weight="bold" lengthAdjust="spacing" textLength="9" x="29" y="107.3638">1</text><text fill="#000000" font-family="sans-serif" font-size="13" lengthAdjust="spacing" textLength="52" x="42" y="107.3638">司机入库</text><polygon fill="#181818" points="214,137.5625,224,141.5625,214,145.5625,218,141.5625" style="stroke:#181818;stroke-width:1.0;"/><line style="stroke:#181818;stroke-width:1.0;" x1="111" x2="220" y1="141.5625" y2="141.5625"/><text fill="#000000" font-family="sans-serif" font-size="13" font-weight="bold" lengthAdjust="spacing" textLength="9" x="118" y="136.4966">2</text><text fill="#000000" font-family="sans-serif" font-size="13" lengthAdjust="spacing" textLength="78" x="131" y="136.4966">更新运单状态</text><line style="stroke:#181818;stroke-width:1.0;" x1="236" x2="278" y1="170.6953" y2="170.6953"/><line style="stroke:#181818;stroke-width:1.0;" x1="278" x2="278" y1="170.6953" y2="183.6953"/><line style="stroke:#181818;stroke-width:1.0;" x1="237" x2="278" y1="183.6953" y2="183.6953"/><polygon fill="#181818" points="247,179.6953,237,183.6953,247,187.6953,243,183.6953" style="stroke:#181818;stroke-width:1.0;"/><text fill="#000000" font-family="sans-serif" font-size="13" font-weight="bold" lengthAdjust="spacing" textLength="9" x="243" y="165.6294">3</text><text fill="#000000" font-family="sans-serif" font-size="13" lengthAdjust="spacing" textLength="104" x="256" y="165.6294">更新运单流转节点</text><polygon fill="#181818" points="360,223.9609,370,227.9609,360,231.9609,364,227.9609" style="stroke:#181818;stroke-width:1.0;"/><line style="stroke:#181818;stroke-width:1.0;stroke-dasharray:2.0,2.0;" x1="231" x2="366" y1="227.9609" y2="227.9609"/><text fill="#000000" font-family="sans-serif" font-size="13" font-weight="bold" lengthAdjust="spacing" textLength="9" x="238" y="215.3286">4</text><text fill="#000000" font-family="sans-serif" font-size="13" lengthAdjust="spacing" textLength="104" x="251" y="207.7622">运单到达最终节点</text><text fill="#000000" font-family="sans-serif" font-size="13" lengthAdjust="spacing" textLength="104" x="251" y="222.895">发送生成派件消息</text><polygon fill="#181818" points="576,253.0938,586,257.0938,576,261.0938,580,257.0938" style="stroke:#181818;stroke-width:1.0;"/><line style="stroke:#181818;stroke-width:1.0;" x1="382" x2="582" y1="257.0938" y2="257.0938"/><text fill="#000000" font-family="sans-serif" font-size="13" font-weight="bold" lengthAdjust="spacing" textLength="9" x="389" y="252.0278">5</text><text fill="#000000" font-family="sans-serif" font-size="13" lengthAdjust="spacing" textLength="117" x="402" y="252.0278">订单位置查询快递员</text><polygon fill="#181818" points="730,282.2266,740,286.2266,730,290.2266,734,286.2266" style="stroke:#181818;stroke-width:1.0;"/><line style="stroke:#181818;stroke-width:1.0;" x1="598" x2="736" y1="286.2266" y2="286.2266"/><text fill="#000000" font-family="sans-serif" font-size="13" font-weight="bold" lengthAdjust="spacing" textLength="9" x="605" y="281.1606">6</text><text fill="#000000" font-family="sans-serif" font-size="13" lengthAdjust="spacing" textLength="78" x="618" y="281.1606">查询服务范围</text><polygon fill="#181818" points="609,311.3594,599,315.3594,609,319.3594,605,315.3594" style="stroke:#181818;stroke-width:1.0;"/><line style="stroke:#181818;stroke-width:1.0;" x1="603" x2="746" y1="315.3594" y2="315.3594"/><text fill="#000000" font-family="sans-serif" font-size="13" font-weight="bold" lengthAdjust="spacing" textLength="9" x="615" y="310.2935">7</text><text fill="#000000" font-family="sans-serif" font-size="13" lengthAdjust="spacing" textLength="65" x="628" y="310.2935">返回快递员</text><line style="stroke:#181818;stroke-width:1.0;" x1="598" x2="640" y1="359.625" y2="359.625"/><line style="stroke:#181818;stroke-width:1.0;" x1="640" x2="640" y1="359.625" y2="372.625"/><line style="stroke:#181818;stroke-width:1.0;" x1="599" x2="640" y1="372.625" y2="372.625"/><polygon fill="#181818" points="609,368.625,599,372.625,609,376.625,605,372.625" style="stroke:#181818;stroke-width:1.0;"/><text fill="#000000" font-family="sans-serif" font-size="13" font-weight="bold" lengthAdjust="spacing" textLength="9" x="605" y="346.9927">8</text><text fill="#000000" font-family="sans-serif" font-size="13" lengthAdjust="spacing" textLength="117" x="618" y="339.4263">优先使用有排班的，</text><text fill="#000000" font-family="sans-serif" font-size="13" lengthAdjust="spacing" textLength="117" x="618" y="354.5591">无排班任意一快递员</text><polygon fill="#181818" points="393,412.8906,383,416.8906,393,420.8906,389,416.8906" style="stroke:#181818;stroke-width:1.0;"/><line style="stroke:#181818;stroke-width:1.0;" x1="387" x2="592" y1="416.8906" y2="416.8906"/><text fill="#000000" font-family="sans-serif" font-size="13" font-weight="bold" lengthAdjust="spacing" textLength="9" x="399" y="404.2583">9</text><text fill="#000000" font-family="sans-serif" font-size="13" lengthAdjust="spacing" textLength="169" x="412" y="396.6919">返回快递员列表（可能为空，</text><text fill="#000000" font-family="sans-serif" font-size="13" lengthAdjust="spacing" textLength="104" x="412" y="411.8247">后台指派快递员）</text><line style="stroke:#181818;stroke-width:1.0;" x1="382" x2="424" y1="461.1563" y2="461.1563"/><line style="stroke:#181818;stroke-width:1.0;" x1="424" x2="424" y1="461.1563" y2="474.1563"/><line style="stroke:#181818;stroke-width:1.0;" x1="383" x2="424" y1="474.1563" y2="474.1563"/><polygon fill="#181818" points="393,470.1563,383,474.1563,393,478.1563,389,474.1563" style="stroke:#181818;stroke-width:1.0;"/><text fill="#000000" font-family="sans-serif" font-size="13" font-weight="bold" lengthAdjust="spacing" textLength="18" x="389" y="448.5239">10</text><text fill="#000000" font-family="sans-serif" font-size="13" lengthAdjust="spacing" textLength="169" x="411" y="440.9575">如果有快递员，需要根据当日</text><text fill="#000000" font-family="sans-serif" font-size="13" lengthAdjust="spacing" textLength="117" x="411" y="456.0903">的任务数选取快递员</text><polygon fill="#181818" points="247,499.2891,237,503.2891,247,507.2891,243,503.2891" style="stroke:#181818;stroke-width:1.0;"/><line style="stroke:#181818;stroke-width:1.0;stroke-dasharray:2.0,2.0;" x1="241" x2="376" y1="503.2891" y2="503.2891"/><text fill="#000000" font-family="sans-serif" font-size="13" font-weight="bold" lengthAdjust="spacing" textLength="18" x="253" y="498.2231">11</text><text fill="#000000" font-family="sans-serif" font-size="13" lengthAdjust="spacing" textLength="78" x="275" y="498.2231">发送实时消息</text><line style="stroke:#181818;stroke-width:1.0;" x1="236" x2="278" y1="532.4219" y2="532.4219"/><line style="stroke:#181818;stroke-width:1.0;" x1="278" x2="278" y1="532.4219" y2="545.4219"/><line style="stroke:#181818;stroke-width:1.0;" x1="237" x2="278" y1="545.4219" y2="545.4219"/><polygon fill="#181818" points="247,541.4219,237,545.4219,247,549.4219,243,545.4219" style="stroke:#181818;stroke-width:1.0;"/><text fill="#000000" font-family="sans-serif" font-size="13" font-weight="bold" lengthAdjust="spacing" textLength="18" x="243" y="527.356">12</text><text fill="#000000" font-family="sans-serif" font-size="13" lengthAdjust="spacing" textLength="78" x="265" y="527.356">新增派件任务</text></g></svg>