<?xml version="1.0" encoding="UTF-8" standalone="no"?><svg xmlns="http://www.w3.org/2000/svg" xmlns:xlink="http://www.w3.org/1999/xlink" contentStyleType="text/css" height="496px" preserveAspectRatio="none" style="width:505px;height:496px;background:#FFFFFF;" version="1.1" viewBox="0 0 505 496" width="505px" zoomAndPan="magnify"><defs/><g><rect fill="#FFFFFF" height="29.1328" style="stroke:#181818;stroke-width:1.0;" width="10" x="17" y="154.5625"/><rect fill="#FFFFFF" height="34.1328" style="stroke:#181818;stroke-width:1.0;" width="10" x="17" y="363.3594"/><rect fill="#FFFFFF" height="251.9297" style="stroke:#181818;stroke-width:1.0;" width="10" x="142" y="154.5625"/><rect fill="#FFFFFF" height="63.2656" style="stroke:#181818;stroke-width:1.0;" width="10" x="306" y="91.2969"/><rect fill="#FFFFFF" height="71.2656" style="stroke:#181818;stroke-width:1.0;" width="10" x="306" y="254.9609"/><line style="stroke:#181818;stroke-width:0.5;stroke-dasharray:5.0,5.0;" x1="22" x2="22" y1="81.2969" y2="415.4922"/><line style="stroke:#181818;stroke-width:0.5;stroke-dasharray:5.0,5.0;" x1="146.5" x2="146.5" y1="81.2969" y2="415.4922"/><line style="stroke:#181818;stroke-width:0.5;stroke-dasharray:5.0,5.0;" x1="310.5" x2="310.5" y1="81.2969" y2="415.4922"/><text fill="#000000" font-family="sans-serif" font-size="14" lengthAdjust="spacing" textLength="28" x="5" y="77.9951">用户</text><ellipse cx="22" cy="13.5" fill="#E2E2F0" rx="8" ry="8" style="stroke:#181818;stroke-width:0.5;"/><path d="M22,21.5 L22,48.5 M9,29.5 L35,29.5 M22,48.5 L9,63.5 M22,48.5 L35,63.5 " fill="none" style="stroke:#181818;stroke-width:0.5;"/><text fill="#000000" font-family="sans-serif" font-size="14" lengthAdjust="spacing" textLength="28" x="5" y="427.4873">用户</text><ellipse cx="22" cy="439.2891" fill="#E2E2F0" rx="8" ry="8" style="stroke:#181818;stroke-width:0.5;"/><path d="M22,447.2891 L22,474.2891 M9,455.2891 L35,455.2891 M22,474.2891 L9,489.2891 M22,474.2891 L35,489.2891 " fill="none" style="stroke:#181818;stroke-width:0.5;"/><rect fill="#E2E2F0" height="30.2969" rx="2.5" ry="2.5" style="stroke:#181818;stroke-width:0.5;" width="113" x="90.5" y="50"/><text fill="#000000" font-family="sans-serif" font-size="14" lengthAdjust="spacing" textLength="99" x="97.5" y="69.9951">xxl-job调度中心</text><rect fill="#E2E2F0" height="30.2969" rx="2.5" ry="2.5" style="stroke:#181818;stroke-width:0.5;" width="113" x="90.5" y="414.4922"/><text fill="#000000" font-family="sans-serif" font-size="14" lengthAdjust="spacing" textLength="99" x="97.5" y="434.4873">xxl-job调度中心</text><rect fill="#E2E2F0" height="30.2969" rx="2.5" ry="2.5" style="stroke:#181818;stroke-width:0.5;" width="133" x="244.5" y="50"/><text fill="#000000" font-family="sans-serif" font-size="14" lengthAdjust="spacing" textLength="119" x="251.5" y="69.9951">sl-express-xxl-job</text><rect fill="#E2E2F0" height="30.2969" rx="2.5" ry="2.5" style="stroke:#181818;stroke-width:0.5;" width="133" x="244.5" y="414.4922"/><text fill="#000000" font-family="sans-serif" font-size="14" lengthAdjust="spacing" textLength="119" x="251.5" y="434.4873">sl-express-xxl-job</text><rect fill="#FFFFFF" height="29.1328" style="stroke:#181818;stroke-width:1.0;" width="10" x="17" y="154.5625"/><rect fill="#FFFFFF" height="34.1328" style="stroke:#181818;stroke-width:1.0;" width="10" x="17" y="363.3594"/><rect fill="#FFFFFF" height="251.9297" style="stroke:#181818;stroke-width:1.0;" width="10" x="142" y="154.5625"/><rect fill="#FFFFFF" height="63.2656" style="stroke:#181818;stroke-width:1.0;" width="10" x="306" y="91.2969"/><rect fill="#FFFFFF" height="71.2656" style="stroke:#181818;stroke-width:1.0;" width="10" x="306" y="254.9609"/><line style="stroke:#181818;stroke-width:1.0;" x1="316" x2="358" y1="112.4297" y2="112.4297"/><line style="stroke:#181818;stroke-width:1.0;" x1="358" x2="358" y1="112.4297" y2="125.4297"/><line style="stroke:#181818;stroke-width:1.0;" x1="317" x2="358" y1="125.4297" y2="125.4297"/><polygon fill="#181818" points="327,121.4297,317,125.4297,327,129.4297,323,125.4297" style="stroke:#181818;stroke-width:1.0;"/><text fill="#000000" font-family="sans-serif" font-size="13" font-weight="bold" lengthAdjust="spacing" textLength="9" x="323" y="107.3638">1</text><text fill="#000000" font-family="sans-serif" font-size="13" lengthAdjust="spacing" textLength="162" x="336" y="107.3638">启动（默认监听端口9999）</text><polygon fill="#181818" points="163,150.5625,153,154.5625,163,158.5625,159,154.5625" style="stroke:#181818;stroke-width:1.0;"/><line style="stroke:#181818;stroke-width:1.0;" x1="157" x2="310" y1="154.5625" y2="154.5625"/><text fill="#000000" font-family="sans-serif" font-size="13" font-weight="bold" lengthAdjust="spacing" textLength="9" x="169" y="149.4966">2</text><text fill="#000000" font-family="sans-serif" font-size="13" lengthAdjust="spacing" textLength="65" x="182" y="149.4966">注册执行器</text><polygon fill="#181818" points="130,179.6953,140,183.6953,130,187.6953,134,183.6953" style="stroke:#181818;stroke-width:1.0;"/><line style="stroke:#181818;stroke-width:1.0;" x1="22" x2="136" y1="183.6953" y2="183.6953"/><text fill="#000000" font-family="sans-serif" font-size="13" font-weight="bold" lengthAdjust="spacing" textLength="9" x="29" y="178.6294">3</text><text fill="#000000" font-family="sans-serif" font-size="13" lengthAdjust="spacing" textLength="78" x="42" y="178.6294">创建定时任务</text><line style="stroke:#181818;stroke-width:1.0;" x1="152" x2="194" y1="212.8281" y2="212.8281"/><line style="stroke:#181818;stroke-width:1.0;" x1="194" x2="194" y1="212.8281" y2="225.8281"/><line style="stroke:#181818;stroke-width:1.0;" x1="153" x2="194" y1="225.8281" y2="225.8281"/><polygon fill="#181818" points="163,221.8281,153,225.8281,163,229.8281,159,225.8281" style="stroke:#181818;stroke-width:1.0;"/><text fill="#000000" font-family="sans-serif" font-size="13" font-weight="bold" lengthAdjust="spacing" textLength="9" x="159" y="207.7622">4</text><text fill="#000000" font-family="sans-serif" font-size="13" lengthAdjust="spacing" textLength="78" x="172" y="207.7622">按照规则调度</text><polygon fill="#181818" points="294,250.9609,304,254.9609,294,258.9609,298,254.9609" style="stroke:#181818;stroke-width:1.0;"/><line style="stroke:#181818;stroke-width:1.0;" x1="152" x2="300" y1="254.9609" y2="254.9609"/><text fill="#000000" font-family="sans-serif" font-size="13" font-weight="bold" lengthAdjust="spacing" textLength="9" x="159" y="249.895">5</text><text fill="#000000" font-family="sans-serif" font-size="13" lengthAdjust="spacing" textLength="104" x="172" y="249.895">发送http调度请求</text><line style="stroke:#181818;stroke-width:1.0;" x1="316" x2="358" y1="284.0938" y2="284.0938"/><line style="stroke:#181818;stroke-width:1.0;" x1="358" x2="358" y1="284.0938" y2="297.0938"/><line style="stroke:#181818;stroke-width:1.0;" x1="317" x2="358" y1="297.0938" y2="297.0938"/><polygon fill="#181818" points="327,293.0938,317,297.0938,327,301.0938,323,297.0938" style="stroke:#181818;stroke-width:1.0;"/><text fill="#000000" font-family="sans-serif" font-size="13" font-weight="bold" lengthAdjust="spacing" textLength="9" x="323" y="279.0278">6</text><text fill="#000000" font-family="sans-serif" font-size="13" lengthAdjust="spacing" textLength="149" x="336" y="279.0278">执行job（业务逻辑处理）</text><polygon fill="#181818" points="163,322.2266,153,326.2266,163,330.2266,159,326.2266" style="stroke:#181818;stroke-width:1.0;"/><line style="stroke:#181818;stroke-width:1.0;" x1="157" x2="310" y1="326.2266" y2="326.2266"/><text fill="#000000" font-family="sans-serif" font-size="13" font-weight="bold" lengthAdjust="spacing" textLength="9" x="169" y="321.1606">7</text><text fill="#000000" font-family="sans-serif" font-size="13" lengthAdjust="spacing" textLength="117" x="182" y="321.1606">http请求，报告结果</text><line style="stroke:#181818;stroke-width:1.0;" x1="152" x2="199" y1="350.3594" y2="350.3594"/><line style="stroke:#181818;stroke-width:1.0;" x1="199" x2="199" y1="350.3594" y2="363.3594"/><line style="stroke:#181818;stroke-width:1.0;" x1="158" x2="199" y1="363.3594" y2="363.3594"/><polygon fill="#181818" points="168,359.3594,158,363.3594,168,367.3594,164,363.3594" style="stroke:#181818;stroke-width:1.0;"/><text fill="#000000" font-family="sans-serif" font-size="13" font-weight="bold" lengthAdjust="spacing" textLength="9" x="164" y="345.2935">8</text><text fill="#000000" font-family="sans-serif" font-size="13" lengthAdjust="spacing" textLength="52" x="177" y="345.2935">记录日志</text><polygon fill="#181818" points="130,393.4922,140,397.4922,130,401.4922,134,397.4922" style="stroke:#181818;stroke-width:1.0;"/><line style="stroke:#181818;stroke-width:1.0;" x1="22" x2="136" y1="397.4922" y2="397.4922"/><text fill="#000000" font-family="sans-serif" font-size="13" font-weight="bold" lengthAdjust="spacing" textLength="9" x="29" y="392.4263">9</text><text fill="#000000" font-family="sans-serif" font-size="13" lengthAdjust="spacing" textLength="52" x="42" y="392.4263">查看日志</text></g></svg>