<?xml version="1.0" encoding="UTF-8" standalone="no"?><svg xmlns="http://www.w3.org/2000/svg" xmlns:xlink="http://www.w3.org/1999/xlink" contentStyleType="text/css" height="454px" preserveAspectRatio="none" style="width:390px;height:454px;background:#FFFFFF;" version="1.1" viewBox="0 0 390 454" width="390px" zoomAndPan="magnify"><defs/><g><rect fill="#FFFFFF" height="100.3984" style="stroke:#181818;stroke-width:1.0;" width="10" x="106" y="112.4297"/><rect fill="#FFFFFF" height="151.5313" style="stroke:#181818;stroke-width:1.0;" width="10" x="207" y="212.8281"/><rect fill="#FFFFFF" height="71.2656" style="stroke:#181818;stroke-width:1.0;" width="10" x="301" y="284.0938"/><line style="stroke:#181818;stroke-width:0.5;stroke-dasharray:5.0,5.0;" x1="22" x2="22" y1="81.2969" y2="373.3594"/><line style="stroke:#181818;stroke-width:0.5;stroke-dasharray:5.0,5.0;" x1="111" x2="111" y1="81.2969" y2="373.3594"/><line style="stroke:#181818;stroke-width:0.5;stroke-dasharray:5.0,5.0;" x1="212" x2="212" y1="81.2969" y2="373.3594"/><line style="stroke:#181818;stroke-width:0.5;stroke-dasharray:5.0,5.0;" x1="306" x2="306" y1="81.2969" y2="373.3594"/><text fill="#000000" font-family="sans-serif" font-size="14" lengthAdjust="spacing" textLength="28" x="5" y="77.9951">用户</text><ellipse cx="22" cy="13.5" fill="#E2E2F0" rx="8" ry="8" style="stroke:#181818;stroke-width:0.5;"/><path d="M22,21.5 L22,48.5 M9,29.5 L35,29.5 M22,48.5 L9,63.5 M22,48.5 L35,63.5 " fill="none" style="stroke:#181818;stroke-width:0.5;"/><text fill="#000000" font-family="sans-serif" font-size="14" lengthAdjust="spacing" textLength="28" x="5" y="385.3545">用户</text><ellipse cx="22" cy="397.1563" fill="#E2E2F0" rx="8" ry="8" style="stroke:#181818;stroke-width:0.5;"/><path d="M22,405.1563 L22,432.1563 M9,413.1563 L35,413.1563 M22,432.1563 L9,447.1563 M22,432.1563 L35,447.1563 " fill="none" style="stroke:#181818;stroke-width:0.5;"/><rect fill="#E2E2F0" height="30.2969" rx="2.5" ry="2.5" style="stroke:#181818;stroke-width:0.5;" width="70" x="76" y="50"/><text fill="#000000" font-family="sans-serif" font-size="14" lengthAdjust="spacing" textLength="56" x="83" y="69.9951">权限管家</text><rect fill="#E2E2F0" height="30.2969" rx="2.5" ry="2.5" style="stroke:#181818;stroke-width:0.5;" width="70" x="76" y="372.3594"/><text fill="#000000" font-family="sans-serif" font-size="14" lengthAdjust="spacing" textLength="56" x="83" y="392.3545">权限管家</text><rect fill="#E2E2F0" height="30.2969" rx="2.5" ry="2.5" style="stroke:#181818;stroke-width:0.5;" width="112" x="156" y="50"/><text fill="#000000" font-family="sans-serif" font-size="14" lengthAdjust="spacing" textLength="98" x="163" y="69.9951">路线规划微服务</text><rect fill="#E2E2F0" height="30.2969" rx="2.5" ry="2.5" style="stroke:#181818;stroke-width:0.5;" width="112" x="156" y="372.3594"/><text fill="#000000" font-family="sans-serif" font-size="14" lengthAdjust="spacing" textLength="98" x="163" y="392.3545">路线规划微服务</text><rect fill="#E2E2F0" height="30.2969" rx="2.5" ry="2.5" style="stroke:#181818;stroke-width:0.5;" width="54" x="279" y="50"/><text fill="#000000" font-family="sans-serif" font-size="14" lengthAdjust="spacing" textLength="40" x="286" y="69.9951">Neo4j</text><rect fill="#E2E2F0" height="30.2969" rx="2.5" ry="2.5" style="stroke:#181818;stroke-width:0.5;" width="54" x="279" y="372.3594"/><text fill="#000000" font-family="sans-serif" font-size="14" lengthAdjust="spacing" textLength="40" x="286" y="392.3545">Neo4j</text><rect fill="#FFFFFF" height="100.3984" style="stroke:#181818;stroke-width:1.0;" width="10" x="106" y="112.4297"/><rect fill="#FFFFFF" height="151.5313" style="stroke:#181818;stroke-width:1.0;" width="10" x="207" y="212.8281"/><rect fill="#FFFFFF" height="71.2656" style="stroke:#181818;stroke-width:1.0;" width="10" x="301" y="284.0938"/><polygon fill="#181818" points="94,108.4297,104,112.4297,94,116.4297,98,112.4297" style="stroke:#181818;stroke-width:1.0;"/><line style="stroke:#181818;stroke-width:1.0;" x1="22" x2="100" y1="112.4297" y2="112.4297"/><text fill="#000000" font-family="sans-serif" font-size="13" font-weight="bold" lengthAdjust="spacing" textLength="9" x="29" y="107.3638">1</text><text fill="#000000" font-family="sans-serif" font-size="13" lengthAdjust="spacing" textLength="52" x="42" y="107.3638">新增机构</text><line style="stroke:#181818;stroke-width:1.0;" x1="116" x2="158" y1="141.5625" y2="141.5625"/><line style="stroke:#181818;stroke-width:1.0;" x1="158" x2="158" y1="141.5625" y2="154.5625"/><line style="stroke:#181818;stroke-width:1.0;" x1="117" x2="158" y1="154.5625" y2="154.5625"/><polygon fill="#181818" points="127,150.5625,117,154.5625,127,158.5625,123,154.5625" style="stroke:#181818;stroke-width:1.0;"/><text fill="#000000" font-family="sans-serif" font-size="13" font-weight="bold" lengthAdjust="spacing" textLength="9" x="123" y="136.4966">2</text><text fill="#000000" font-family="sans-serif" font-size="13" lengthAdjust="spacing" textLength="52" x="136" y="136.4966">保存数据</text><polygon fill="#181818" points="33,179.6953,23,183.6953,33,187.6953,29,183.6953" style="stroke:#181818;stroke-width:1.0;"/><line style="stroke:#181818;stroke-width:1.0;stroke-dasharray:2.0,2.0;" x1="27" x2="105" y1="183.6953" y2="183.6953"/><text fill="#000000" font-family="sans-serif" font-size="13" font-weight="bold" lengthAdjust="spacing" textLength="9" x="39" y="178.6294">3</text><text fill="#000000" font-family="sans-serif" font-size="13" lengthAdjust="spacing" textLength="26" x="52" y="178.6294">返回</text><polygon fill="#181818" points="195,208.8281,205,212.8281,195,216.8281,199,212.8281" style="stroke:#181818;stroke-width:1.0;"/><line style="stroke:#181818;stroke-width:1.0;stroke-dasharray:2.0,2.0;" x1="111" x2="201" y1="212.8281" y2="212.8281"/><text fill="#000000" font-family="sans-serif" font-size="13" font-weight="bold" lengthAdjust="spacing" textLength="9" x="118" y="207.7622">4</text><text fill="#000000" font-family="sans-serif" font-size="13" lengthAdjust="spacing" textLength="52" x="131" y="207.7622">发送消息</text><line style="stroke:#181818;stroke-width:1.0;" x1="217" x2="259" y1="241.9609" y2="241.9609"/><line style="stroke:#181818;stroke-width:1.0;" x1="259" x2="259" y1="241.9609" y2="254.9609"/><line style="stroke:#181818;stroke-width:1.0;" x1="218" x2="259" y1="254.9609" y2="254.9609"/><polygon fill="#181818" points="228,250.9609,218,254.9609,228,258.9609,224,254.9609" style="stroke:#181818;stroke-width:1.0;"/><text fill="#000000" font-family="sans-serif" font-size="13" font-weight="bold" lengthAdjust="spacing" textLength="9" x="224" y="236.895">5</text><text fill="#000000" font-family="sans-serif" font-size="13" lengthAdjust="spacing" textLength="52" x="237" y="236.895">业务处理</text><polygon fill="#181818" points="289,280.0938,299,284.0938,289,288.0938,293,284.0938" style="stroke:#181818;stroke-width:1.0;"/><line style="stroke:#181818;stroke-width:1.0;" x1="217" x2="295" y1="284.0938" y2="284.0938"/><text fill="#000000" font-family="sans-serif" font-size="13" font-weight="bold" lengthAdjust="spacing" textLength="9" x="224" y="279.0278">6</text><text fill="#000000" font-family="sans-serif" font-size="13" lengthAdjust="spacing" textLength="52" x="237" y="279.0278">保存数据</text><line style="stroke:#181818;stroke-width:1.0;" x1="311" x2="353" y1="313.2266" y2="313.2266"/><line style="stroke:#181818;stroke-width:1.0;" x1="353" x2="353" y1="313.2266" y2="326.2266"/><line style="stroke:#181818;stroke-width:1.0;" x1="312" x2="353" y1="326.2266" y2="326.2266"/><polygon fill="#181818" points="322,322.2266,312,326.2266,322,330.2266,318,326.2266" style="stroke:#181818;stroke-width:1.0;"/><text fill="#000000" font-family="sans-serif" font-size="13" font-weight="bold" lengthAdjust="spacing" textLength="9" x="318" y="308.1606">7</text><text fill="#000000" font-family="sans-serif" font-size="13" lengthAdjust="spacing" textLength="52" x="331" y="308.1606">保存数据</text><polygon fill="#181818" points="228,351.3594,218,355.3594,228,359.3594,224,355.3594" style="stroke:#181818;stroke-width:1.0;"/><line style="stroke:#181818;stroke-width:1.0;" x1="222" x2="305" y1="355.3594" y2="355.3594"/><text fill="#000000" font-family="sans-serif" font-size="13" font-weight="bold" lengthAdjust="spacing" textLength="9" x="234" y="350.2935">8</text><text fill="#000000" font-family="sans-serif" font-size="13" lengthAdjust="spacing" textLength="26" x="247" y="350.2935">返回</text></g></svg>