<?xml version="1.0" encoding="UTF-8" standalone="no"?><svg xmlns="http://www.w3.org/2000/svg" xmlns:xlink="http://www.w3.org/1999/xlink" contentStyleType="text/css" height="989px" preserveAspectRatio="none" style="width:648px;height:989px;background:#FFFFFF;" version="1.1" viewBox="0 0 648 989" width="648px" zoomAndPan="magnify"><defs/><g><rect fill="#FFFFFF" height="21.1328" style="stroke:#181818;stroke-width:1.0;" width="10" x="17" y="91.2969"/><rect fill="#FFFFFF" height="416.7266" style="stroke:#181818;stroke-width:1.0;" width="10" x="17" y="227.9609"/><rect fill="#FFFFFF" height="707.1875" style="stroke:#181818;stroke-width:1.0;" width="10" x="172" y="183.6953"/><rect fill="#FFFFCC" height="288.3281" style="stroke:#181818;stroke-width:1.0;" width="10" x="177" y="573.4219"/><rect fill="#FFFFFF" height="71.2656" style="stroke:#181818;stroke-width:1.0;" width="10" x="292" y="112.4297"/><rect fill="#FFFFFF" height="101.5313" style="stroke:#181818;stroke-width:1.0;" width="10" x="292" y="760.2188"/><rect fill="#FFFFFF" height="171.6641" style="stroke:#181818;stroke-width:1.0;" width="10" x="408" y="257.0938"/><rect fill="#FFFFFF" height="86.3984" style="stroke:#181818;stroke-width:1.0;" width="10" x="408" y="673.8203"/><rect fill="#FFFFFF" height="71.2656" style="stroke:#181818;stroke-width:1.0;" width="10" x="550" y="328.3594"/><rect fill="#FFFFFF" height="144.6641" style="stroke:#181818;stroke-width:1.0;" width="10" x="550" y="529.1563"/><line style="stroke:#181818;stroke-width:0.5;stroke-dasharray:5.0,5.0;" x1="22" x2="22" y1="81.2969" y2="908.8828"/><line style="stroke:#181818;stroke-width:0.5;stroke-dasharray:5.0,5.0;" x1="177" x2="177" y1="81.2969" y2="908.8828"/><line style="stroke:#181818;stroke-width:0.5;stroke-dasharray:5.0,5.0;" x1="297" x2="297" y1="81.2969" y2="908.8828"/><line style="stroke:#181818;stroke-width:0.5;stroke-dasharray:5.0,5.0;" x1="413" x2="413" y1="81.2969" y2="908.8828"/><line style="stroke:#181818;stroke-width:0.5;stroke-dasharray:5.0,5.0;" x1="555" x2="555" y1="81.2969" y2="908.8828"/><text fill="#000000" font-family="sans-serif" font-size="14" lengthAdjust="spacing" textLength="28" x="5" y="77.9951">用户</text><ellipse cx="22" cy="13.5" fill="#E2E2F0" rx="8" ry="8" style="stroke:#181818;stroke-width:0.5;"/><path d="M22,21.5 L22,48.5 M9,29.5 L35,29.5 M22,48.5 L9,63.5 M22,48.5 L35,63.5 " fill="none" style="stroke:#181818;stroke-width:0.5;"/><text fill="#000000" font-family="sans-serif" font-size="14" lengthAdjust="spacing" textLength="28" x="5" y="920.8779">用户</text><ellipse cx="22" cy="932.6797" fill="#E2E2F0" rx="8" ry="8" style="stroke:#181818;stroke-width:0.5;"/><path d="M22,940.6797 L22,967.6797 M9,948.6797 L35,948.6797 M22,967.6797 L9,982.6797 M22,967.6797 L35,982.6797 " fill="none" style="stroke:#181818;stroke-width:0.5;"/><rect fill="#E2E2F0" height="30.2969" rx="2.5" ry="2.5" style="stroke:#181818;stroke-width:0.5;" width="56" x="149" y="50"/><text fill="#000000" font-family="sans-serif" font-size="14" lengthAdjust="spacing" textLength="42" x="156" y="69.9951">快递员</text><rect fill="#E2E2F0" height="30.2969" rx="2.5" ry="2.5" style="stroke:#181818;stroke-width:0.5;" width="56" x="149" y="907.8828"/><text fill="#000000" font-family="sans-serif" font-size="14" lengthAdjust="spacing" textLength="42" x="156" y="927.8779">快递员</text><rect fill="#E2E2F0" height="30.2969" rx="2.5" ry="2.5" style="stroke:#181818;stroke-width:0.5;" width="84" x="255" y="50"/><text fill="#000000" font-family="sans-serif" font-size="14" lengthAdjust="spacing" textLength="70" x="262" y="69.9951">订单微服务</text><rect fill="#E2E2F0" height="30.2969" rx="2.5" ry="2.5" style="stroke:#181818;stroke-width:0.5;" width="84" x="255" y="907.8828"/><text fill="#000000" font-family="sans-serif" font-size="14" lengthAdjust="spacing" textLength="70" x="262" y="927.8779">订单微服务</text><rect fill="#E2E2F0" height="30.2969" rx="2.5" ry="2.5" style="stroke:#181818;stroke-width:0.5;" width="84" x="371" y="50"/><text fill="#000000" font-family="sans-serif" font-size="14" lengthAdjust="spacing" textLength="70" x="378" y="69.9951">支付微服务</text><rect fill="#E2E2F0" height="30.2969" rx="2.5" ry="2.5" style="stroke:#181818;stroke-width:0.5;" width="84" x="371" y="907.8828"/><text fill="#000000" font-family="sans-serif" font-size="14" lengthAdjust="spacing" textLength="70" x="378" y="927.8779">支付微服务</text><rect fill="#E2E2F0" height="30.2969" rx="2.5" ry="2.5" style="stroke:#181818;stroke-width:0.5;" width="98" x="506" y="50"/><text fill="#000000" font-family="sans-serif" font-size="14" lengthAdjust="spacing" textLength="84" x="513" y="69.9951">三方支付平台</text><rect fill="#E2E2F0" height="30.2969" rx="2.5" ry="2.5" style="stroke:#181818;stroke-width:0.5;" width="98" x="506" y="907.8828"/><text fill="#000000" font-family="sans-serif" font-size="14" lengthAdjust="spacing" textLength="84" x="513" y="927.8779">三方支付平台</text><rect fill="#FFFFFF" height="21.1328" style="stroke:#181818;stroke-width:1.0;" width="10" x="17" y="91.2969"/><rect fill="#FFFFFF" height="416.7266" style="stroke:#181818;stroke-width:1.0;" width="10" x="17" y="227.9609"/><rect fill="#FFFFFF" height="707.1875" style="stroke:#181818;stroke-width:1.0;" width="10" x="172" y="183.6953"/><rect fill="#FFFFCC" height="288.3281" style="stroke:#181818;stroke-width:1.0;" width="10" x="177" y="573.4219"/><rect fill="#FFFFFF" height="71.2656" style="stroke:#181818;stroke-width:1.0;" width="10" x="292" y="112.4297"/><rect fill="#FFFFFF" height="101.5313" style="stroke:#181818;stroke-width:1.0;" width="10" x="292" y="760.2188"/><rect fill="#FFFFFF" height="171.6641" style="stroke:#181818;stroke-width:1.0;" width="10" x="408" y="257.0938"/><rect fill="#FFFFFF" height="86.3984" style="stroke:#181818;stroke-width:1.0;" width="10" x="408" y="673.8203"/><rect fill="#FFFFFF" height="71.2656" style="stroke:#181818;stroke-width:1.0;" width="10" x="550" y="328.3594"/><rect fill="#FFFFFF" height="144.6641" style="stroke:#181818;stroke-width:1.0;" width="10" x="550" y="529.1563"/><polygon fill="#181818" points="280,108.4297,290,112.4297,280,116.4297,284,112.4297" style="stroke:#181818;stroke-width:1.0;"/><line style="stroke:#181818;stroke-width:1.0;" x1="22" x2="286" y1="112.4297" y2="112.4297"/><text fill="#000000" font-family="sans-serif" font-size="13" font-weight="bold" lengthAdjust="spacing" textLength="9" x="29" y="107.3638">1</text><text fill="#000000" font-family="sans-serif" font-size="13" lengthAdjust="spacing" textLength="26" x="42" y="107.3638">下单</text><line style="stroke:#181818;stroke-width:1.0;" x1="302" x2="344" y1="141.5625" y2="141.5625"/><line style="stroke:#181818;stroke-width:1.0;" x1="344" x2="344" y1="141.5625" y2="154.5625"/><line style="stroke:#181818;stroke-width:1.0;" x1="303" x2="344" y1="154.5625" y2="154.5625"/><polygon fill="#181818" points="313,150.5625,303,154.5625,313,158.5625,309,154.5625" style="stroke:#181818;stroke-width:1.0;"/><text fill="#000000" font-family="sans-serif" font-size="13" font-weight="bold" lengthAdjust="spacing" textLength="9" x="309" y="136.4966">2</text><text fill="#000000" font-family="sans-serif" font-size="13" lengthAdjust="spacing" textLength="52" x="322" y="136.4966">生成订单</text><polygon fill="#181818" points="193,179.6953,183,183.6953,193,187.6953,189,183.6953" style="stroke:#181818;stroke-width:1.0;"/><line style="stroke:#181818;stroke-width:1.0;" x1="187" x2="296" y1="183.6953" y2="183.6953"/><text fill="#000000" font-family="sans-serif" font-size="13" font-weight="bold" lengthAdjust="spacing" textLength="9" x="199" y="178.6294">3</text><text fill="#000000" font-family="sans-serif" font-size="13" lengthAdjust="spacing" textLength="78" x="212" y="178.6294">生成取件任务</text><polygon fill="#181818" points="38,223.9609,28,227.9609,38,231.9609,34,227.9609" style="stroke:#181818;stroke-width:1.0;"/><line style="stroke:#181818;stroke-width:1.0;" x1="32" x2="171" y1="227.9609" y2="227.9609"/><text fill="#000000" font-family="sans-serif" font-size="13" font-weight="bold" lengthAdjust="spacing" textLength="9" x="44" y="215.3286">4</text><text fill="#000000" font-family="sans-serif" font-size="13" lengthAdjust="spacing" textLength="52" x="57" y="207.7622">上门取件</text><text fill="#000000" font-family="sans-serif" font-size="13" lengthAdjust="spacing" textLength="91" x="57" y="222.895">确定重量和体积</text><polygon fill="#181818" points="396,253.0938,406,257.0938,396,261.0938,400,257.0938" style="stroke:#181818;stroke-width:1.0;"/><line style="stroke:#181818;stroke-width:1.0;" x1="182" x2="402" y1="257.0938" y2="257.0938"/><text fill="#000000" font-family="sans-serif" font-size="13" font-weight="bold" lengthAdjust="spacing" textLength="9" x="189" y="252.0278">5</text><text fill="#000000" font-family="sans-serif" font-size="13" lengthAdjust="spacing" textLength="52" x="202" y="252.0278">申请支付</text><line style="stroke:#181818;stroke-width:1.0;" x1="418" x2="460" y1="286.2266" y2="286.2266"/><line style="stroke:#181818;stroke-width:1.0;" x1="460" x2="460" y1="286.2266" y2="299.2266"/><line style="stroke:#181818;stroke-width:1.0;" x1="419" x2="460" y1="299.2266" y2="299.2266"/><polygon fill="#181818" points="429,295.2266,419,299.2266,429,303.2266,425,299.2266" style="stroke:#181818;stroke-width:1.0;"/><text fill="#000000" font-family="sans-serif" font-size="13" font-weight="bold" lengthAdjust="spacing" textLength="9" x="425" y="281.1606">6</text><text fill="#000000" font-family="sans-serif" font-size="13" lengthAdjust="spacing" textLength="65" x="438" y="281.1606">创建交易单</text><polygon fill="#181818" points="538,324.3594,548,328.3594,538,332.3594,542,328.3594" style="stroke:#181818;stroke-width:1.0;"/><line style="stroke:#181818;stroke-width:1.0;" x1="418" x2="544" y1="328.3594" y2="328.3594"/><text fill="#000000" font-family="sans-serif" font-size="13" font-weight="bold" lengthAdjust="spacing" textLength="9" x="425" y="323.2935">7</text><text fill="#000000" font-family="sans-serif" font-size="13" lengthAdjust="spacing" textLength="52" x="438" y="323.2935">申请支付</text><line style="stroke:#181818;stroke-width:1.0;" x1="560" x2="602" y1="357.4922" y2="357.4922"/><line style="stroke:#181818;stroke-width:1.0;" x1="602" x2="602" y1="357.4922" y2="370.4922"/><line style="stroke:#181818;stroke-width:1.0;" x1="561" x2="602" y1="370.4922" y2="370.4922"/><polygon fill="#181818" points="571,366.4922,561,370.4922,571,374.4922,567,370.4922" style="stroke:#181818;stroke-width:1.0;"/><text fill="#000000" font-family="sans-serif" font-size="13" font-weight="bold" lengthAdjust="spacing" textLength="9" x="567" y="352.4263">8</text><text fill="#000000" font-family="sans-serif" font-size="13" lengthAdjust="spacing" textLength="52" x="580" y="352.4263">内部逻辑</text><polygon fill="#181818" points="429,395.625,419,399.625,429,403.625,425,399.625" style="stroke:#181818;stroke-width:1.0;"/><line style="stroke:#181818;stroke-width:1.0;" x1="423" x2="554" y1="399.625" y2="399.625"/><text fill="#000000" font-family="sans-serif" font-size="13" font-weight="bold" lengthAdjust="spacing" textLength="9" x="435" y="394.5591">9</text><text fill="#000000" font-family="sans-serif" font-size="13" lengthAdjust="spacing" textLength="52" x="448" y="394.5591">支付链接</text><polygon fill="#181818" points="193,424.7578,183,428.7578,193,432.7578,189,428.7578" style="stroke:#181818;stroke-width:1.0;"/><line style="stroke:#181818;stroke-width:1.0;" x1="187" x2="412" y1="428.7578" y2="428.7578"/><text fill="#000000" font-family="sans-serif" font-size="13" font-weight="bold" lengthAdjust="spacing" textLength="18" x="199" y="423.6919">10</text><text fill="#000000" font-family="sans-serif" font-size="13" lengthAdjust="spacing" textLength="65" x="221" y="423.6919">生成二维码</text><polygon fill="#181818" points="38,453.8906,28,457.8906,38,461.8906,34,457.8906" style="stroke:#181818;stroke-width:1.0;"/><line style="stroke:#181818;stroke-width:1.0;" x1="32" x2="171" y1="457.8906" y2="457.8906"/><text fill="#000000" font-family="sans-serif" font-size="13" font-weight="bold" lengthAdjust="spacing" textLength="18" x="44" y="452.8247">11</text><text fill="#000000" font-family="sans-serif" font-size="13" lengthAdjust="spacing" textLength="65" x="66" y="452.8247">展示二维码</text><line style="stroke:#181818;stroke-width:1.0;" x1="27" x2="69" y1="487.0234" y2="487.0234"/><line style="stroke:#181818;stroke-width:1.0;" x1="69" x2="69" y1="487.0234" y2="500.0234"/><line style="stroke:#181818;stroke-width:1.0;" x1="28" x2="69" y1="500.0234" y2="500.0234"/><polygon fill="#181818" points="38,496.0234,28,500.0234,38,504.0234,34,500.0234" style="stroke:#181818;stroke-width:1.0;"/><text fill="#000000" font-family="sans-serif" font-size="13" font-weight="bold" lengthAdjust="spacing" textLength="18" x="34" y="481.9575">12</text><text fill="#000000" font-family="sans-serif" font-size="13" lengthAdjust="spacing" textLength="104" x="56" y="481.9575">通过手机扫码支付</text><polygon fill="#181818" points="538,525.1563,548,529.1563,538,533.1563,542,529.1563" style="stroke:#181818;stroke-width:1.0;"/><line style="stroke:#181818;stroke-width:1.0;" x1="27" x2="544" y1="529.1563" y2="529.1563"/><text fill="#000000" font-family="sans-serif" font-size="13" font-weight="bold" lengthAdjust="spacing" textLength="18" x="34" y="524.0903">13</text><text fill="#000000" font-family="sans-serif" font-size="13" lengthAdjust="spacing" textLength="26" x="56" y="524.0903">付款</text><polygon fill="#181818" points="401,569.4219,411,573.4219,401,577.4219,405,573.4219" style="stroke:#181818;stroke-width:1.0;"/><line style="stroke:#181818;stroke-width:1.0;stroke-dasharray:2.0,2.0;" x1="187" x2="407" y1="573.4219" y2="573.4219"/><text fill="#000000" font-family="sans-serif" font-size="13" font-weight="bold" lengthAdjust="spacing" textLength="18" x="194" y="560.7896">14</text><text fill="#000000" font-family="sans-serif" font-size="13" lengthAdjust="spacing" textLength="39" x="216" y="553.2231">查询支</text><text fill="#000000" font-family="sans-serif" font-size="13" lengthAdjust="spacing" textLength="91" x="216" y="568.356">付状态（轮询）</text><line style="stroke:#181818;stroke-width:1.0;" x1="560" x2="602" y1="602.5547" y2="602.5547"/><line style="stroke:#181818;stroke-width:1.0;" x1="602" x2="602" y1="602.5547" y2="615.5547"/><line style="stroke:#181818;stroke-width:1.0;" x1="561" x2="602" y1="615.5547" y2="615.5547"/><polygon fill="#181818" points="571,611.5547,561,615.5547,571,619.5547,567,615.5547" style="stroke:#181818;stroke-width:1.0;"/><text fill="#000000" font-family="sans-serif" font-size="13" font-weight="bold" lengthAdjust="spacing" textLength="18" x="567" y="597.4888">15</text><text fill="#000000" font-family="sans-serif" font-size="13" lengthAdjust="spacing" textLength="52" x="589" y="597.4888">内部逻辑</text><polygon fill="#181818" points="33,640.6875,23,644.6875,33,648.6875,29,644.6875" style="stroke:#181818;stroke-width:1.0;"/><line style="stroke:#181818;stroke-width:1.0;stroke-dasharray:2.0,2.0;" x1="27" x2="549" y1="644.6875" y2="644.6875"/><text fill="#000000" font-family="sans-serif" font-size="13" font-weight="bold" lengthAdjust="spacing" textLength="18" x="39" y="639.6216">16</text><text fill="#000000" font-family="sans-serif" font-size="13" lengthAdjust="spacing" textLength="82" x="61" y="639.6216">付款成功/失败</text><polygon fill="#181818" points="429,669.8203,419,673.8203,429,677.8203,425,673.8203" style="stroke:#181818;stroke-width:1.0;"/><line style="stroke:#181818;stroke-width:1.0;" x1="423" x2="554" y1="673.8203" y2="673.8203"/><text fill="#000000" font-family="sans-serif" font-size="13" font-weight="bold" lengthAdjust="spacing" textLength="18" x="435" y="668.7544">17</text><text fill="#000000" font-family="sans-serif" font-size="13" lengthAdjust="spacing" textLength="91" x="457" y="668.7544">通知：付款成功</text><line style="stroke:#181818;stroke-width:1.0;" x1="418" x2="460" y1="702.9531" y2="702.9531"/><line style="stroke:#181818;stroke-width:1.0;" x1="460" x2="460" y1="702.9531" y2="715.9531"/><line style="stroke:#181818;stroke-width:1.0;" x1="419" x2="460" y1="715.9531" y2="715.9531"/><polygon fill="#181818" points="429,711.9531,419,715.9531,429,719.9531,425,715.9531" style="stroke:#181818;stroke-width:1.0;"/><text fill="#000000" font-family="sans-serif" font-size="13" font-weight="bold" lengthAdjust="spacing" textLength="18" x="425" y="697.8872">18</text><text fill="#000000" font-family="sans-serif" font-size="13" lengthAdjust="spacing" textLength="91" x="447" y="697.8872">更新交易单状态</text><polygon fill="#181818" points="313,756.2188,303,760.2188,313,764.2188,309,760.2188" style="stroke:#181818;stroke-width:1.0;"/><line style="stroke:#181818;stroke-width:1.0;stroke-dasharray:2.0,2.0;" x1="307" x2="412" y1="760.2188" y2="760.2188"/><text fill="#000000" font-family="sans-serif" font-size="13" font-weight="bold" lengthAdjust="spacing" textLength="18" x="319" y="747.5864">19</text><text fill="#000000" font-family="sans-serif" font-size="13" lengthAdjust="spacing" textLength="65" x="341" y="740.02">发消息通知</text><text fill="#000000" font-family="sans-serif" font-size="13" lengthAdjust="spacing" textLength="52" x="341" y="755.1528">支付成功</text><line style="stroke:#181818;stroke-width:1.0;" x1="302" x2="344" y1="804.4844" y2="804.4844"/><line style="stroke:#181818;stroke-width:1.0;" x1="344" x2="344" y1="804.4844" y2="817.4844"/><line style="stroke:#181818;stroke-width:1.0;" x1="303" x2="344" y1="817.4844" y2="817.4844"/><polygon fill="#181818" points="313,813.4844,303,817.4844,313,821.4844,309,817.4844" style="stroke:#181818;stroke-width:1.0;"/><text fill="#000000" font-family="sans-serif" font-size="13" font-weight="bold" lengthAdjust="spacing" textLength="18" x="309" y="791.8521">20</text><text fill="#000000" font-family="sans-serif" font-size="13" lengthAdjust="spacing" textLength="52" x="331" y="784.2856">更新订单</text><text fill="#000000" font-family="sans-serif" font-size="13" lengthAdjust="spacing" textLength="52" x="331" y="799.4185">支付状态</text><polygon fill="#181818" points="401,857.75,411,861.75,401,865.75,405,861.75" style="stroke:#181818;stroke-width:1.0;"/><line style="stroke:#181818;stroke-width:1.0;stroke-dasharray:2.0,2.0;" x1="182" x2="407" y1="861.75" y2="861.75"/><text fill="#000000" font-family="sans-serif" font-size="13" font-weight="bold" lengthAdjust="spacing" textLength="18" x="189" y="849.1177">21</text><text fill="#000000" font-family="sans-serif" font-size="13" lengthAdjust="spacing" textLength="39" x="211" y="841.5513">查询支</text><text fill="#000000" font-family="sans-serif" font-size="13" lengthAdjust="spacing" textLength="91" x="211" y="856.6841">付状态（轮询）</text><polygon fill="#181818" points="33,886.8828,23,890.8828,33,894.8828,29,890.8828" style="stroke:#181818;stroke-width:1.0;"/><line style="stroke:#181818;stroke-width:1.0;stroke-dasharray:2.0,2.0;" x1="27" x2="176" y1="890.8828" y2="890.8828"/><text fill="#000000" font-family="sans-serif" font-size="13" font-weight="bold" lengthAdjust="spacing" textLength="18" x="39" y="885.8169">22</text><text fill="#000000" font-family="sans-serif" font-size="13" lengthAdjust="spacing" textLength="104" x="61" y="885.8169">支付成功（展示）</text></g></svg>