<?xml version="1.0" encoding="UTF-8" standalone="no"?><svg xmlns="http://www.w3.org/2000/svg" xmlns:xlink="http://www.w3.org/1999/xlink" contentStyleType="text/css" height="957px" preserveAspectRatio="none" style="width:945px;height:957px;background:#FFFFFF;" version="1.1" viewBox="0 0 945 957" width="945px" zoomAndPan="magnify"><defs/><g><rect fill="#FFFFFF" height="776.3203" style="stroke:#181818;stroke-width:1.0;" width="10" x="24" y="91.2969"/><rect fill="#FFFFFF" height="731.0547" style="stroke:#181818;stroke-width:1.0;" width="10" x="225" y="127.5625"/><rect fill="#FFFFFF" height="573.3906" style="stroke:#181818;stroke-width:1.0;" width="10" x="426" y="213.9609"/><rect fill="#FFFFFF" height="186.7969" style="stroke:#181818;stroke-width:1.0;" width="10" x="643" y="428.8906"/><rect fill="#FFFFFF" height="71.2656" style="stroke:#181818;stroke-width:1.0;" width="10" x="795" y="644.8203"/><line style="stroke:#181818;stroke-width:0.5;stroke-dasharray:5.0,5.0;" x1="29" x2="29" y1="81.2969" y2="876.6172"/><line style="stroke:#181818;stroke-width:0.5;stroke-dasharray:5.0,5.0;" x1="229.5" x2="229.5" y1="81.2969" y2="876.6172"/><line style="stroke:#181818;stroke-width:0.5;stroke-dasharray:5.0,5.0;" x1="431" x2="431" y1="81.2969" y2="876.6172"/><line style="stroke:#181818;stroke-width:0.5;stroke-dasharray:5.0,5.0;" x1="647.5" x2="647.5" y1="81.2969" y2="876.6172"/><line style="stroke:#181818;stroke-width:0.5;stroke-dasharray:5.0,5.0;" x1="799.5" x2="799.5" y1="81.2969" y2="876.6172"/><text fill="#000000" font-family="sans-serif" font-size="14" lengthAdjust="spacing" textLength="42" x="5" y="77.9951">快递员</text><ellipse cx="29" cy="13.5" fill="#E2E2F0" rx="8" ry="8" style="stroke:#181818;stroke-width:0.5;"/><path d="M29,21.5 L29,48.5 M16,29.5 L42,29.5 M29,48.5 L16,63.5 M29,48.5 L42,63.5 " fill="none" style="stroke:#181818;stroke-width:0.5;"/><text fill="#000000" font-family="sans-serif" font-size="14" lengthAdjust="spacing" textLength="42" x="5" y="888.6123">快递员</text><ellipse cx="29" cy="900.4141" fill="#E2E2F0" rx="8" ry="8" style="stroke:#181818;stroke-width:0.5;"/><path d="M29,908.4141 L29,935.4141 M16,916.4141 L42,916.4141 M29,935.4141 L16,950.4141 M29,935.4141 L42,950.4141 " fill="none" style="stroke:#181818;stroke-width:0.5;"/><rect fill="#E2E2F0" height="30.2969" rx="2.5" ry="2.5" style="stroke:#181818;stroke-width:0.5;" width="147" x="156.5" y="50"/><text fill="#000000" font-family="sans-serif" font-size="14" lengthAdjust="spacing" textLength="133" x="163.5" y="69.9951">NativePayController</text><rect fill="#E2E2F0" height="30.2969" rx="2.5" ry="2.5" style="stroke:#181818;stroke-width:0.5;" width="147" x="156.5" y="875.6172"/><text fill="#000000" font-family="sans-serif" font-size="14" lengthAdjust="spacing" textLength="133" x="163.5" y="895.6123">NativePayController</text><rect fill="#E2E2F0" height="30.2969" rx="2.5" ry="2.5" style="stroke:#181818;stroke-width:0.5;" width="130" x="366" y="50"/><text fill="#000000" font-family="sans-serif" font-size="14" lengthAdjust="spacing" textLength="116" x="373" y="69.9951">NativePayService</text><rect fill="#E2E2F0" height="30.2969" rx="2.5" ry="2.5" style="stroke:#181818;stroke-width:0.5;" width="130" x="366" y="875.6172"/><text fill="#000000" font-family="sans-serif" font-size="14" lengthAdjust="spacing" textLength="116" x="373" y="895.6123">NativePayService</text><rect fill="#E2E2F0" height="30.2969" rx="2.5" ry="2.5" style="stroke:#181818;stroke-width:0.5;" width="117" x="589.5" y="50"/><text fill="#000000" font-family="sans-serif" font-size="14" lengthAdjust="spacing" textLength="103" x="596.5" y="69.9951">HandlerFactory</text><rect fill="#E2E2F0" height="30.2969" rx="2.5" ry="2.5" style="stroke:#181818;stroke-width:0.5;" width="117" x="589.5" y="875.6172"/><text fill="#000000" font-family="sans-serif" font-size="14" lengthAdjust="spacing" textLength="103" x="596.5" y="895.6123">HandlerFactory</text><rect fill="#E2E2F0" height="30.2969" rx="2.5" ry="2.5" style="stroke:#181818;stroke-width:0.5;" width="133" x="733.5" y="50"/><text fill="#000000" font-family="sans-serif" font-size="14" lengthAdjust="spacing" textLength="119" x="740.5" y="69.9951">NativePayHandler</text><rect fill="#E2E2F0" height="30.2969" rx="2.5" ry="2.5" style="stroke:#181818;stroke-width:0.5;" width="133" x="733.5" y="875.6172"/><text fill="#000000" font-family="sans-serif" font-size="14" lengthAdjust="spacing" textLength="119" x="740.5" y="895.6123">NativePayHandler</text><rect fill="#FFFFFF" height="776.3203" style="stroke:#181818;stroke-width:1.0;" width="10" x="24" y="91.2969"/><rect fill="#FFFFFF" height="731.0547" style="stroke:#181818;stroke-width:1.0;" width="10" x="225" y="127.5625"/><rect fill="#FFFFFF" height="573.3906" style="stroke:#181818;stroke-width:1.0;" width="10" x="426" y="213.9609"/><rect fill="#FFFFFF" height="186.7969" style="stroke:#181818;stroke-width:1.0;" width="10" x="643" y="428.8906"/><rect fill="#FFFFFF" height="71.2656" style="stroke:#181818;stroke-width:1.0;" width="10" x="795" y="644.8203"/><polygon fill="#181818" points="213,123.5625,223,127.5625,213,131.5625,217,127.5625" style="stroke:#181818;stroke-width:1.0;"/><line style="stroke:#181818;stroke-width:1.0;" x1="34" x2="219" y1="127.5625" y2="127.5625"/><text fill="#000000" font-family="sans-serif" font-size="13" font-weight="bold" lengthAdjust="spacing" textLength="9" x="41" y="114.9302">1</text><text fill="#000000" font-family="sans-serif" font-size="13" lengthAdjust="spacing" textLength="159" x="54" y="107.3638">createDownLineTrading()</text><text fill="#000000" font-family="sans-serif" font-size="13" lengthAdjust="spacing" textLength="130" x="54" y="122.4966">参数：NativePayDTO</text><line style="stroke:#181818;stroke-width:1.0;" x1="235" x2="277" y1="156.6953" y2="156.6953"/><line style="stroke:#181818;stroke-width:1.0;" x1="277" x2="277" y1="156.6953" y2="169.6953"/><line style="stroke:#181818;stroke-width:1.0;" x1="236" x2="277" y1="169.6953" y2="169.6953"/><polygon fill="#181818" points="246,165.6953,236,169.6953,246,173.6953,242,169.6953" style="stroke:#181818;stroke-width:1.0;"/><text fill="#000000" font-family="sans-serif" font-size="13" font-weight="bold" lengthAdjust="spacing" textLength="9" x="242" y="151.6294">2</text><text fill="#000000" font-family="sans-serif" font-size="13" lengthAdjust="spacing" textLength="84" x="255" y="151.6294">DTO to Entity</text><polygon fill="#181818" points="414,209.9609,424,213.9609,414,217.9609,418,213.9609" style="stroke:#181818;stroke-width:1.0;"/><line style="stroke:#181818;stroke-width:1.0;" x1="235" x2="420" y1="213.9609" y2="213.9609"/><text fill="#000000" font-family="sans-serif" font-size="13" font-weight="bold" lengthAdjust="spacing" textLength="9" x="242" y="201.3286">3</text><text fill="#000000" font-family="sans-serif" font-size="13" lengthAdjust="spacing" textLength="159" x="255" y="193.7622">createDownLineTrading()</text><text fill="#000000" font-family="sans-serif" font-size="13" lengthAdjust="spacing" textLength="122" x="255" y="208.895">参数：TradingEntity</text><line style="stroke:#181818;stroke-width:1.0;" x1="436" x2="478" y1="243.0938" y2="243.0938"/><line style="stroke:#181818;stroke-width:1.0;" x1="478" x2="478" y1="243.0938" y2="256.0938"/><line style="stroke:#181818;stroke-width:1.0;" x1="437" x2="478" y1="256.0938" y2="256.0938"/><polygon fill="#181818" points="447,252.0938,437,256.0938,447,260.0938,443,256.0938" style="stroke:#181818;stroke-width:1.0;"/><text fill="#000000" font-family="sans-serif" font-size="13" font-weight="bold" lengthAdjust="spacing" textLength="9" x="443" y="238.0278">4</text><text fill="#000000" font-family="sans-serif" font-size="13" lengthAdjust="spacing" textLength="91" x="456" y="238.0278">检测交易单参数</text><line style="stroke:#181818;stroke-width:1.0;" x1="436" x2="478" y1="285.2266" y2="285.2266"/><line style="stroke:#181818;stroke-width:1.0;" x1="478" x2="478" y1="285.2266" y2="298.2266"/><line style="stroke:#181818;stroke-width:1.0;" x1="437" x2="478" y1="298.2266" y2="298.2266"/><polygon fill="#181818" points="447,294.2266,437,298.2266,447,302.2266,443,298.2266" style="stroke:#181818;stroke-width:1.0;"/><text fill="#000000" font-family="sans-serif" font-size="13" font-weight="bold" lengthAdjust="spacing" textLength="9" x="443" y="280.1606">5</text><text fill="#000000" font-family="sans-serif" font-size="13" lengthAdjust="spacing" textLength="78" x="456" y="280.1606">交易订单加锁</text><polygon fill="#181818" points="246,338.4922,236,342.4922,246,346.4922,242,342.4922" style="stroke:#181818;stroke-width:1.0;"/><line style="stroke:#181818;stroke-width:1.0;stroke-dasharray:2.0,2.0;" x1="240" x2="425" y1="342.4922" y2="342.4922"/><text fill="#000000" font-family="sans-serif" font-size="13" font-weight="bold" lengthAdjust="spacing" textLength="9" x="252" y="329.8599">6</text><text fill="#000000" font-family="sans-serif" font-size="13" lengthAdjust="spacing" textLength="52" x="265" y="322.2935">加锁失败</text><text fill="#000000" font-family="sans-serif" font-size="13" lengthAdjust="spacing" textLength="104" x="265" y="337.4263">抛出SLException</text><line style="stroke:#181818;stroke-width:1.0;" x1="436" x2="478" y1="371.625" y2="371.625"/><line style="stroke:#181818;stroke-width:1.0;" x1="478" x2="478" y1="371.625" y2="384.625"/><line style="stroke:#181818;stroke-width:1.0;" x1="437" x2="478" y1="384.625" y2="384.625"/><polygon fill="#181818" points="447,380.625,437,384.625,447,388.625,443,384.625" style="stroke:#181818;stroke-width:1.0;"/><text fill="#000000" font-family="sans-serif" font-size="13" font-weight="bold" lengthAdjust="spacing" textLength="9" x="443" y="366.5591">7</text><text fill="#000000" font-family="sans-serif" font-size="13" lengthAdjust="spacing" textLength="65" x="456" y="366.5591">幂等性处理</text><polygon fill="#181818" points="631,424.8906,641,428.8906,631,432.8906,635,428.8906" style="stroke:#181818;stroke-width:1.0;"/><line style="stroke:#181818;stroke-width:1.0;" x1="436" x2="637" y1="428.8906" y2="428.8906"/><text fill="#000000" font-family="sans-serif" font-size="13" font-weight="bold" lengthAdjust="spacing" textLength="9" x="443" y="416.2583">8</text><text fill="#000000" font-family="sans-serif" font-size="13" lengthAdjust="spacing" textLength="140" x="456" y="408.6919">获取NativePayHandler</text><text fill="#000000" font-family="sans-serif" font-size="13" lengthAdjust="spacing" textLength="89" x="456" y="423.8247">类型：ALI_PAY</text><line style="stroke:#181818;stroke-width:1.0;" x1="653" x2="695" y1="458.0234" y2="458.0234"/><line style="stroke:#181818;stroke-width:1.0;" x1="695" x2="695" y1="458.0234" y2="471.0234"/><line style="stroke:#181818;stroke-width:1.0;" x1="654" x2="695" y1="471.0234" y2="471.0234"/><polygon fill="#181818" points="664,467.0234,654,471.0234,664,475.0234,660,471.0234" style="stroke:#181818;stroke-width:1.0;"/><text fill="#000000" font-family="sans-serif" font-size="13" font-weight="bold" lengthAdjust="spacing" textLength="9" x="660" y="452.9575">9</text><text fill="#000000" font-family="sans-serif" font-size="13" lengthAdjust="spacing" textLength="106" x="673" y="452.9575">Spring容器中获取</text><polygon fill="#181818" points="447,496.1563,437,500.1563,447,504.1563,443,500.1563" style="stroke:#181818;stroke-width:1.0;"/><line style="stroke:#181818;stroke-width:1.0;" x1="441" x2="642" y1="500.1563" y2="500.1563"/><text fill="#000000" font-family="sans-serif" font-size="13" font-weight="bold" lengthAdjust="spacing" textLength="18" x="453" y="495.0903">10</text><text fill="#000000" font-family="sans-serif" font-size="13" lengthAdjust="spacing" textLength="129" x="475" y="495.0903">AliNativePayHandler</text><polygon fill="#181818" points="631,540.4219,641,544.4219,631,548.4219,635,544.4219" style="stroke:#181818;stroke-width:1.0;"/><line style="stroke:#181818;stroke-width:1.0;" x1="436" x2="637" y1="544.4219" y2="544.4219"/><text fill="#000000" font-family="sans-serif" font-size="13" font-weight="bold" lengthAdjust="spacing" textLength="18" x="443" y="531.7896">11</text><text fill="#000000" font-family="sans-serif" font-size="13" lengthAdjust="spacing" textLength="140" x="465" y="524.2231">获取NativePayHandler</text><text fill="#000000" font-family="sans-serif" font-size="13" lengthAdjust="spacing" textLength="124" x="465" y="539.356">类型：WECHAT_PAY</text><line style="stroke:#181818;stroke-width:1.0;" x1="653" x2="695" y1="573.5547" y2="573.5547"/><line style="stroke:#181818;stroke-width:1.0;" x1="695" x2="695" y1="573.5547" y2="586.5547"/><line style="stroke:#181818;stroke-width:1.0;" x1="654" x2="695" y1="586.5547" y2="586.5547"/><polygon fill="#181818" points="664,582.5547,654,586.5547,664,590.5547,660,586.5547" style="stroke:#181818;stroke-width:1.0;"/><text fill="#000000" font-family="sans-serif" font-size="13" font-weight="bold" lengthAdjust="spacing" textLength="18" x="660" y="568.4888">12</text><text fill="#000000" font-family="sans-serif" font-size="13" lengthAdjust="spacing" textLength="106" x="682" y="568.4888">Spring容器中获取</text><polygon fill="#181818" points="447,611.6875,437,615.6875,447,619.6875,443,615.6875" style="stroke:#181818;stroke-width:1.0;"/><line style="stroke:#181818;stroke-width:1.0;" x1="441" x2="647" y1="615.6875" y2="615.6875"/><text fill="#000000" font-family="sans-serif" font-size="13" font-weight="bold" lengthAdjust="spacing" textLength="18" x="453" y="610.6216">13</text><text fill="#000000" font-family="sans-serif" font-size="13" lengthAdjust="spacing" textLength="161" x="475" y="610.6216">WechatNativePayHandler</text><polygon fill="#181818" points="783,640.8203,793,644.8203,783,648.8203,787,644.8203" style="stroke:#181818;stroke-width:1.0;"/><line style="stroke:#181818;stroke-width:1.0;" x1="436" x2="789" y1="644.8203" y2="644.8203"/><text fill="#000000" font-family="sans-serif" font-size="13" font-weight="bold" lengthAdjust="spacing" textLength="18" x="443" y="639.7544">14</text><text fill="#000000" font-family="sans-serif" font-size="13" lengthAdjust="spacing" textLength="242" x="465" y="639.7544">createDownLineTrading(TradingEntity)</text><line style="stroke:#181818;stroke-width:1.0;" x1="805" x2="847" y1="673.9531" y2="673.9531"/><line style="stroke:#181818;stroke-width:1.0;" x1="847" x2="847" y1="673.9531" y2="686.9531"/><line style="stroke:#181818;stroke-width:1.0;" x1="806" x2="847" y1="686.9531" y2="686.9531"/><polygon fill="#181818" points="816,682.9531,806,686.9531,816,690.9531,812,686.9531" style="stroke:#181818;stroke-width:1.0;"/><text fill="#000000" font-family="sans-serif" font-size="13" font-weight="bold" lengthAdjust="spacing" textLength="18" x="812" y="668.8872">15</text><text fill="#000000" font-family="sans-serif" font-size="13" lengthAdjust="spacing" textLength="104" x="834" y="668.8872">调用支付平台接口</text><polygon fill="#181818" points="447,712.0859,437,716.0859,447,720.0859,443,716.0859" style="stroke:#181818;stroke-width:1.0;"/><line style="stroke:#181818;stroke-width:1.0;" x1="441" x2="799" y1="716.0859" y2="716.0859"/><text fill="#000000" font-family="sans-serif" font-size="13" font-weight="bold" lengthAdjust="spacing" textLength="18" x="453" y="711.02">16</text><text fill="#000000" font-family="sans-serif" font-size="13" lengthAdjust="spacing" textLength="78" x="475" y="711.02">返回支付链接</text><line style="stroke:#181818;stroke-width:1.0;" x1="436" x2="478" y1="745.2188" y2="745.2188"/><line style="stroke:#181818;stroke-width:1.0;" x1="478" x2="478" y1="745.2188" y2="758.2188"/><line style="stroke:#181818;stroke-width:1.0;" x1="437" x2="478" y1="758.2188" y2="758.2188"/><polygon fill="#181818" points="447,754.2188,437,758.2188,447,762.2188,443,758.2188" style="stroke:#181818;stroke-width:1.0;"/><text fill="#000000" font-family="sans-serif" font-size="13" font-weight="bold" lengthAdjust="spacing" textLength="18" x="443" y="740.1528">17</text><text fill="#000000" font-family="sans-serif" font-size="13" lengthAdjust="spacing" textLength="138" x="465" y="740.1528">生成二维码（base64）</text><polygon fill="#181818" points="246,783.3516,236,787.3516,246,791.3516,242,787.3516" style="stroke:#181818;stroke-width:1.0;"/><line style="stroke:#181818;stroke-width:1.0;" x1="240" x2="430" y1="787.3516" y2="787.3516"/><text fill="#000000" font-family="sans-serif" font-size="13" font-weight="bold" lengthAdjust="spacing" textLength="18" x="252" y="782.2856">18</text><text fill="#000000" font-family="sans-serif" font-size="13" lengthAdjust="spacing" textLength="126" x="274" y="782.2856">return TradingEntity</text><line style="stroke:#181818;stroke-width:1.0;" x1="235" x2="277" y1="816.4844" y2="816.4844"/><line style="stroke:#181818;stroke-width:1.0;" x1="277" x2="277" y1="816.4844" y2="829.4844"/><line style="stroke:#181818;stroke-width:1.0;" x1="236" x2="277" y1="829.4844" y2="829.4844"/><polygon fill="#181818" points="246,825.4844,236,829.4844,246,833.4844,242,829.4844" style="stroke:#181818;stroke-width:1.0;"/><text fill="#000000" font-family="sans-serif" font-size="13" font-weight="bold" lengthAdjust="spacing" textLength="18" x="242" y="811.4185">19</text><text fill="#000000" font-family="sans-serif" font-size="13" lengthAdjust="spacing" textLength="84" x="264" y="811.4185">Entity to DTO</text><polygon fill="#181818" points="45,854.6172,35,858.6172,45,862.6172,41,858.6172" style="stroke:#181818;stroke-width:1.0;"/><line style="stroke:#181818;stroke-width:1.0;" x1="39" x2="229" y1="858.6172" y2="858.6172"/><text fill="#000000" font-family="sans-serif" font-size="13" font-weight="bold" lengthAdjust="spacing" textLength="18" x="51" y="853.5513">20</text><text fill="#000000" font-family="sans-serif" font-size="13" lengthAdjust="spacing" textLength="70" x="73" y="853.5513">return DTO</text></g></svg>